<svg xmlns="http://www.w3.org/2000/svg" xmlns:xlink="http://www.w3.org/1999/xlink" width="100" zoomAndPan="magnify" viewBox="0 0 75 74.999997" height="100" preserveAspectRatio="xMidYMid meet" version="1.0"><defs><clipPath id="40ffd35954"><path d="M 40 46 L 41 46 L 41 47 L 40 47 Z M 40 46 " clip-rule="nonzero"/></clipPath><clipPath id="482045195a"><path d="M 40.523438 46.730469 L 40.140625 46.8125 L 40.023438 46.25 L 40.402344 46.167969 Z M 40.523438 46.730469 " clip-rule="nonzero"/></clipPath><clipPath id="26dc01bc66"><path d="M 40.523438 46.730469 L 40.140625 46.8125 L 40.023438 46.25 L 40.402344 46.167969 Z M 40.523438 46.730469 " clip-rule="nonzero"/></clipPath><clipPath id="d151eea20b"><path d="M 36 43 L 37 43 L 37 44 L 36 44 Z M 36 43 " clip-rule="nonzero"/></clipPath><clipPath id="05d85fe528"><path d="M 36.210938 43.351562 L 36.386719 43.003906 L 36.898438 43.261719 L 36.722656 43.613281 Z M 36.210938 43.351562 " clip-rule="nonzero"/></clipPath><clipPath id="8206e44104"><path d="M 36.210938 43.351562 L 36.386719 43.003906 L 36.898438 43.261719 L 36.722656 43.613281 Z M 36.210938 43.351562 " clip-rule="nonzero"/></clipPath><clipPath id="697e3c181f"><path d="M 35 42 L 37 42 L 37 44 L 35 44 Z M 35 42 " clip-rule="nonzero"/></clipPath><clipPath id="751b6aa41c"><path d="M 35.539062 42.640625 L 35.835938 42.386719 L 36.207031 42.824219 L 35.910156 43.078125 Z M 35.539062 42.640625 " clip-rule="nonzero"/></clipPath><clipPath id="f9307e8868"><path d="M 35.539062 42.640625 L 35.835938 42.386719 L 36.207031 42.824219 L 35.910156 43.078125 Z M 35.539062 42.640625 " clip-rule="nonzero"/></clipPath><clipPath id="59cbf280bd"><path d="M 35 41 L 36 41 L 36 43 L 35 43 Z M 35 41 " clip-rule="nonzero"/></clipPath><clipPath id="d210fe091a"><path d="M 35.195312 41.785156 L 35.574219 41.695312 L 35.703125 42.253906 L 35.324219 42.34375 Z M 35.195312 41.785156 " clip-rule="nonzero"/></clipPath><clipPath id="36cf5bc647"><path d="M 35.195312 41.785156 L 35.574219 41.695312 L 35.703125 42.253906 L 35.324219 42.34375 Z M 35.195312 41.785156 " clip-rule="nonzero"/></clipPath><clipPath id="cdb4b386e4"><path d="M 35 40 L 36 40 L 36 42 L 35 42 Z M 35 40 " clip-rule="nonzero"/></clipPath><clipPath id="e29bd9685e"><path d="M 35.082031 40.871094 L 35.472656 40.847656 L 35.507812 41.421875 L 35.121094 41.445312 Z M 35.082031 40.871094 " clip-rule="nonzero"/></clipPath><clipPath id="cdfb3c1f08"><path d="M 35.082031 40.871094 L 35.472656 40.847656 L 35.507812 41.421875 L 35.121094 41.445312 Z M 35.082031 40.871094 " clip-rule="nonzero"/></clipPath><clipPath id="cdd7cc3063"><path d="M 35 39 L 36 39 L 36 41 L 35 41 Z M 35 39 " clip-rule="nonzero"/></clipPath><clipPath id="b28c5016ba"><path d="M 35.425781 39.9375 L 35.792969 40.078125 L 35.585938 40.613281 L 35.222656 40.476562 Z M 35.425781 39.9375 " clip-rule="nonzero"/></clipPath><clipPath id="2f1400faa3"><path d="M 35.425781 39.9375 L 35.792969 40.078125 L 35.585938 40.613281 L 35.222656 40.476562 Z M 35.425781 39.9375 " clip-rule="nonzero"/></clipPath><clipPath id="25f0e66bc3"><path d="M 35 39 L 37 39 L 37 40 L 35 40 Z M 35 39 " clip-rule="nonzero"/></clipPath><clipPath id="655977957c"><path d="M 35.984375 39.035156 L 36.296875 39.265625 L 35.960938 39.730469 L 35.644531 39.5 Z M 35.984375 39.035156 " clip-rule="nonzero"/></clipPath><clipPath id="43cb3ddd7a"><path d="M 35.984375 39.035156 L 36.296875 39.265625 L 35.960938 39.730469 L 35.644531 39.5 Z M 35.984375 39.035156 " clip-rule="nonzero"/></clipPath><clipPath id="c6847ae203"><path d="M 36 38 L 38 38 L 38 40 L 36 40 Z M 36 38 " clip-rule="nonzero"/></clipPath><clipPath id="17060f8a63"><path d="M 36.789062 38.382812 L 37.019531 38.699219 L 36.554688 39.035156 L 36.324219 38.71875 Z M 36.789062 38.382812 " clip-rule="nonzero"/></clipPath><clipPath id="7030650445"><path d="M 36.789062 38.382812 L 37.019531 38.699219 L 36.554688 39.035156 L 36.324219 38.71875 Z M 36.789062 38.382812 " clip-rule="nonzero"/></clipPath><clipPath id="35ced0d091"><path d="M 37 37 L 38 37 L 38 39 L 37 39 Z M 37 37 " clip-rule="nonzero"/></clipPath><clipPath id="bda8f67aa5"><path d="M 37.683594 37.976562 L 37.832031 38.339844 L 37.300781 38.554688 L 37.152344 38.195312 Z M 37.683594 37.976562 " clip-rule="nonzero"/></clipPath><clipPath id="f5518c6a73"><path d="M 37.683594 37.976562 L 37.832031 38.339844 L 37.300781 38.554688 L 37.152344 38.195312 Z M 37.683594 37.976562 " clip-rule="nonzero"/></clipPath><clipPath id="ee82e9e096"><path d="M 38.125 37.875 L 38.699219 37.875 L 38.699219 38.265625 L 38.125 38.265625 Z M 38.125 37.875 " clip-rule="nonzero"/></clipPath><clipPath id="d2f53f9fcd"><path d="M 39 37 L 41 37 L 41 39 L 39 39 Z M 39 37 " clip-rule="nonzero"/></clipPath><clipPath id="dbe6cbac69"><path d="M 40.617188 38.132812 L 40.507812 38.507812 L 39.957031 38.347656 L 40.066406 37.972656 Z M 40.617188 38.132812 " clip-rule="nonzero"/></clipPath><clipPath id="8bfde8256a"><path d="M 40.617188 38.132812 L 40.507812 38.507812 L 39.957031 38.347656 L 40.066406 37.972656 Z M 40.617188 38.132812 " clip-rule="nonzero"/></clipPath><clipPath id="4980dc7259"><path d="M 40 38 L 42 38 L 42 39 L 40 39 Z M 40 38 " clip-rule="nonzero"/></clipPath><clipPath id="e851e5552f"><path d="M 41.464844 38.570312 L 41.269531 38.910156 L 40.773438 38.621094 L 40.96875 38.28125 Z M 41.464844 38.570312 " clip-rule="nonzero"/></clipPath><clipPath id="78e87702da"><path d="M 41.464844 38.570312 L 41.269531 38.910156 L 40.773438 38.621094 L 40.96875 38.28125 Z M 41.464844 38.570312 " clip-rule="nonzero"/></clipPath><clipPath id="4da2a1584f"><path d="M 41 38 L 43 38 L 43 40 L 41 40 Z M 41 38 " clip-rule="nonzero"/></clipPath><clipPath id="853b1d99ff"><path d="M 42.148438 39.105469 L 41.882812 39.390625 L 41.464844 38.996094 L 41.734375 38.710938 Z M 42.148438 39.105469 " clip-rule="nonzero"/></clipPath><clipPath id="bb03205f61"><path d="M 42.148438 39.105469 L 41.882812 39.390625 L 41.464844 38.996094 L 41.734375 38.710938 Z M 42.148438 39.105469 " clip-rule="nonzero"/></clipPath><clipPath id="15c9df59a6"><path d="M 41 39 L 43 39 L 43 41 L 41 41 Z M 41 39 " clip-rule="nonzero"/></clipPath><clipPath id="692f6df2e5"><path d="M 42.613281 39.871094 L 42.273438 40.066406 L 41.988281 39.566406 L 42.328125 39.375 Z M 42.613281 39.871094 " clip-rule="nonzero"/></clipPath><clipPath id="211ae861c2"><path d="M 42.613281 39.871094 L 42.273438 40.066406 L 41.988281 39.566406 L 42.328125 39.375 Z M 42.613281 39.871094 " clip-rule="nonzero"/></clipPath><clipPath id="ab5de97333"><path d="M 42 40 L 43 40 L 43 41 L 42 41 Z M 42 40 " clip-rule="nonzero"/></clipPath><clipPath id="157d9ee5a3"><path d="M 42.871094 40.777344 L 42.492188 40.871094 L 42.355469 40.3125 L 42.734375 40.21875 Z M 42.871094 40.777344 " clip-rule="nonzero"/></clipPath><clipPath id="a1ebc5f6da"><path d="M 42.871094 40.777344 L 42.492188 40.871094 L 42.355469 40.3125 L 42.734375 40.21875 Z M 42.871094 40.777344 " clip-rule="nonzero"/></clipPath><clipPath id="94c46e3048"><path d="M 42 42 L 43 42 L 43 43 L 42 43 Z M 42 42 " clip-rule="nonzero"/></clipPath><clipPath id="fb794e2507"><path d="M 42.792969 42.652344 L 42.414062 42.570312 L 42.539062 42.007812 L 42.917969 42.09375 Z M 42.792969 42.652344 " clip-rule="nonzero"/></clipPath><clipPath id="7140c07eb1"><path d="M 42.792969 42.652344 L 42.414062 42.570312 L 42.539062 42.007812 L 42.917969 42.09375 Z M 42.792969 42.652344 " clip-rule="nonzero"/></clipPath><clipPath id="5dc55d7693"><path d="M 42 42 L 43 42 L 43 44 L 42 44 Z M 42 42 " clip-rule="nonzero"/></clipPath><clipPath id="3393f73941"><path d="M 42.480469 43.496094 L 42.121094 43.34375 L 42.347656 42.816406 L 42.707031 42.972656 Z M 42.480469 43.496094 " clip-rule="nonzero"/></clipPath><clipPath id="3d7c6572fa"><path d="M 42.480469 43.496094 L 42.121094 43.34375 L 42.347656 42.816406 L 42.707031 42.972656 Z M 42.480469 43.496094 " clip-rule="nonzero"/></clipPath><clipPath id="494c9ae137"><path d="M 41 43 L 43 43 L 43 45 L 41 45 Z M 41 43 " clip-rule="nonzero"/></clipPath><clipPath id="cbb30c9fea"><path d="M 41.902344 44.273438 L 41.625 43.996094 L 42.03125 43.59375 L 42.308594 43.867188 Z M 41.902344 44.273438 " clip-rule="nonzero"/></clipPath><clipPath id="ab072c2294"><path d="M 41.902344 44.273438 L 41.625 43.996094 L 42.03125 43.59375 L 42.308594 43.867188 Z M 41.902344 44.273438 " clip-rule="nonzero"/></clipPath><clipPath id="5ca599f678"><path d="M 38 45 L 40 45 L 40 47 L 38 47 Z M 38 45 " clip-rule="nonzero"/></clipPath><clipPath id="e11e308481"><path d="M 38.53125 46.019531 L 38.425781 45.640625 L 38.980469 45.488281 L 39.082031 45.867188 Z M 38.53125 46.019531 " clip-rule="nonzero"/></clipPath><clipPath id="e3ec0a5e17"><path d="M 38.53125 46.019531 L 38.425781 45.640625 L 38.980469 45.488281 L 39.082031 45.867188 Z M 38.53125 46.019531 " clip-rule="nonzero"/></clipPath><clipPath id="644a654f0d"><path d="M 39 45 L 41 45 L 41 46 L 39 46 Z M 39 45 " clip-rule="nonzero"/></clipPath><clipPath id="682b9f7335"><path d="M 39.464844 45.742188 L 39.34375 45.371094 L 39.886719 45.191406 L 40.007812 45.5625 Z M 39.464844 45.742188 " clip-rule="nonzero"/></clipPath><clipPath id="fe66268e60"><path d="M 39.464844 45.742188 L 39.34375 45.371094 L 39.886719 45.191406 L 40.007812 45.5625 Z M 39.464844 45.742188 " clip-rule="nonzero"/></clipPath><clipPath id="41b98063a8"><path d="M 37.5625 45.640625 L 38.136719 45.640625 L 38.136719 46.03125 L 37.5625 46.03125 Z M 37.5625 45.640625 " clip-rule="nonzero"/></clipPath><clipPath id="f8ed03bd40"><path d="M 39 37 L 40 37 L 40 39 L 39 39 Z M 39 37 " clip-rule="nonzero"/></clipPath><clipPath id="1f929efd86"><path d="M 39.632812 37.894531 L 39.601562 38.285156 L 39.03125 38.242188 L 39.0625 37.851562 Z M 39.632812 37.894531 " clip-rule="nonzero"/></clipPath><clipPath id="21acd16b3c"><path d="M 39.632812 37.894531 L 39.601562 38.285156 L 39.03125 38.242188 L 39.0625 37.851562 Z M 39.632812 37.894531 " clip-rule="nonzero"/></clipPath><clipPath id="93678cbdee"><path d="M 42 41 L 43 41 L 43 42 L 42 42 Z M 42 41 " clip-rule="nonzero"/></clipPath><clipPath id="b413302105"><path d="M 42.917969 41.714844 L 42.527344 41.726562 L 42.507812 41.15625 L 42.898438 41.140625 Z M 42.917969 41.714844 " clip-rule="nonzero"/></clipPath><clipPath id="a4f66016f7"><path d="M 42.917969 41.714844 L 42.527344 41.726562 L 42.507812 41.15625 L 42.898438 41.140625 Z M 42.917969 41.714844 " clip-rule="nonzero"/></clipPath><clipPath id="5eb9d87a3f"><path d="M 40 44 L 42 44 L 42 45 L 40 45 Z M 40 44 " clip-rule="nonzero"/></clipPath><clipPath id="9ef7d885d7"><path d="M 41.183594 44.941406 L 40.933594 44.640625 L 41.375 44.273438 L 41.625 44.574219 Z M 41.183594 44.941406 " clip-rule="nonzero"/></clipPath><clipPath id="01d658c46f"><path d="M 41.183594 44.941406 L 40.933594 44.640625 L 41.375 44.273438 L 41.625 44.574219 Z M 41.183594 44.941406 " clip-rule="nonzero"/></clipPath><clipPath id="40218f6ea1"><path d="M 40 44 L 41 44 L 41 46 L 40 46 Z M 40 44 " clip-rule="nonzero"/></clipPath><clipPath id="53c2859235"><path d="M 40.320312 45.410156 L 40.15625 45.054688 L 40.675781 44.8125 L 40.839844 45.164062 Z M 40.320312 45.410156 " clip-rule="nonzero"/></clipPath><clipPath id="57599cf43c"><path d="M 40.320312 45.410156 L 40.15625 45.054688 L 40.675781 44.8125 L 40.839844 45.164062 Z M 40.320312 45.410156 " clip-rule="nonzero"/></clipPath><clipPath id="937c41d835"><path d="M 36 45 L 38 45 L 38 47 L 36 47 Z M 36 45 " clip-rule="nonzero"/></clipPath><clipPath id="0eae766b9e"><path d="M 36.566406 45.988281 L 36.621094 45.601562 L 37.1875 45.683594 L 37.132812 46.070312 Z M 36.566406 45.988281 " clip-rule="nonzero"/></clipPath><clipPath id="d2dc6765d2"><path d="M 36.566406 45.988281 L 36.621094 45.601562 L 37.1875 45.683594 L 37.132812 46.070312 Z M 36.566406 45.988281 " clip-rule="nonzero"/></clipPath><clipPath id="e301c76235"><path d="M 35 45 L 37 45 L 37 46 L 35 46 Z M 35 45 " clip-rule="nonzero"/></clipPath><clipPath id="4930a00d6a"><path d="M 35.503906 45.703125 L 35.617188 45.332031 L 36.167969 45.5 L 36.050781 45.875 Z M 35.503906 45.703125 " clip-rule="nonzero"/></clipPath><clipPath id="230ea0c9bb"><path d="M 35.503906 45.703125 L 35.617188 45.332031 L 36.167969 45.5 L 36.050781 45.875 Z M 35.503906 45.703125 " clip-rule="nonzero"/></clipPath><clipPath id="9146e2144d"><path d="M 34 44 L 36 44 L 36 46 L 34 46 Z M 34 44 " clip-rule="nonzero"/></clipPath><clipPath id="3bf660f4c1"><path d="M 34.660156 45.296875 L 34.832031 44.949219 L 35.347656 45.203125 L 35.171875 45.550781 Z M 34.660156 45.296875 " clip-rule="nonzero"/></clipPath><clipPath id="715fc5967b"><path d="M 34.660156 45.296875 L 34.832031 44.949219 L 35.347656 45.203125 L 35.171875 45.550781 Z M 34.660156 45.296875 " clip-rule="nonzero"/></clipPath><clipPath id="327c55ce0e"><path d="M 33 44 L 35 44 L 35 46 L 33 46 Z M 33 44 " clip-rule="nonzero"/></clipPath><clipPath id="9f482498b0"><path d="M 33.84375 44.796875 L 34.0625 44.472656 L 34.539062 44.792969 L 34.324219 45.117188 Z M 33.84375 44.796875 " clip-rule="nonzero"/></clipPath><clipPath id="c7d6ff5395"><path d="M 33.84375 44.796875 L 34.0625 44.472656 L 34.539062 44.792969 L 34.324219 45.117188 Z M 33.84375 44.796875 " clip-rule="nonzero"/></clipPath><clipPath id="d0a7b06a2f"><path d="M 33 43 L 34 43 L 34 45 L 33 45 Z M 33 43 " clip-rule="nonzero"/></clipPath><clipPath id="1ab38f7d49"><path d="M 33.152344 44.25 L 33.414062 43.957031 L 33.84375 44.339844 L 33.582031 44.628906 Z M 33.152344 44.25 " clip-rule="nonzero"/></clipPath><clipPath id="ac88818001"><path d="M 33.152344 44.25 L 33.414062 43.957031 L 33.84375 44.339844 L 33.582031 44.628906 Z M 33.152344 44.25 " clip-rule="nonzero"/></clipPath><clipPath id="9190843310"><path d="M 32 43 L 34 43 L 34 44 L 32 44 Z M 32 43 " clip-rule="nonzero"/></clipPath><clipPath id="de20f50ed4"><path d="M 32.484375 43.5625 L 32.78125 43.308594 L 33.152344 43.746094 L 32.855469 44 Z M 32.484375 43.5625 " clip-rule="nonzero"/></clipPath><clipPath id="ca0bc7b111"><path d="M 32.484375 43.5625 L 32.78125 43.308594 L 33.152344 43.746094 L 32.855469 44 Z M 32.484375 43.5625 " clip-rule="nonzero"/></clipPath><clipPath id="d920892c10"><path d="M 31 42 L 33 42 L 33 44 L 31 44 Z M 31 42 " clip-rule="nonzero"/></clipPath><clipPath id="eb925a3491"><path d="M 31.941406 42.824219 L 32.273438 42.617188 L 32.578125 43.105469 L 32.246094 43.3125 Z M 31.941406 42.824219 " clip-rule="nonzero"/></clipPath><clipPath id="50c54c7a88"><path d="M 31.941406 42.824219 L 32.273438 42.617188 L 32.578125 43.105469 L 32.246094 43.3125 Z M 31.941406 42.824219 " clip-rule="nonzero"/></clipPath><clipPath id="41a366da0a"><path d="M 31 41 L 33 41 L 33 43 L 31 43 Z M 31 41 " clip-rule="nonzero"/></clipPath><clipPath id="86168643f6"><path d="M 31.566406 41.957031 L 31.933594 41.820312 L 32.132812 42.359375 L 31.765625 42.496094 Z M 31.566406 41.957031 " clip-rule="nonzero"/></clipPath><clipPath id="7ef4ae64a4"><path d="M 31.566406 41.957031 L 31.933594 41.820312 L 32.132812 42.359375 L 31.765625 42.496094 Z M 31.566406 41.957031 " clip-rule="nonzero"/></clipPath><clipPath id="b8fb063127"><path d="M 31 40 L 32 40 L 32 42 L 31 42 Z M 31 40 " clip-rule="nonzero"/></clipPath><clipPath id="c717c8bc67"><path d="M 31.4375 40.9375 L 31.824219 40.902344 L 31.878906 41.472656 L 31.492188 41.507812 Z M 31.4375 40.9375 " clip-rule="nonzero"/></clipPath><clipPath id="58bc3b5d4f"><path d="M 31.4375 40.9375 L 31.824219 40.902344 L 31.878906 41.472656 L 31.492188 41.507812 Z M 31.4375 40.9375 " clip-rule="nonzero"/></clipPath><clipPath id="a8bfc0cd24"><path d="M 31 39 L 32 39 L 32 41 L 31 41 Z M 31 39 " clip-rule="nonzero"/></clipPath><clipPath id="ce50eeb303"><path d="M 31.507812 39.9375 L 31.894531 40 L 31.804688 40.566406 L 31.417969 40.503906 Z M 31.507812 39.9375 " clip-rule="nonzero"/></clipPath><clipPath id="7219c75bf9"><path d="M 31.507812 39.9375 L 31.894531 40 L 31.804688 40.566406 L 31.417969 40.503906 Z M 31.507812 39.9375 " clip-rule="nonzero"/></clipPath><clipPath id="1a68cbcd8a"><path d="M 31 39 L 33 39 L 33 40 L 31 40 Z M 31 39 " clip-rule="nonzero"/></clipPath><clipPath id="1dfbb95bc4"><path d="M 31.746094 39.015625 L 32.117188 39.140625 L 31.933594 39.683594 L 31.5625 39.5625 Z M 31.746094 39.015625 " clip-rule="nonzero"/></clipPath><clipPath id="7aeb8921f4"><path d="M 31.746094 39.015625 L 32.117188 39.140625 L 31.933594 39.683594 L 31.5625 39.558594 Z M 31.746094 39.015625 " clip-rule="nonzero"/></clipPath><clipPath id="48718da64e"><path d="M 31 38 L 33 38 L 33 39 L 31 39 Z M 31 38 " clip-rule="nonzero"/></clipPath><clipPath id="796e663bdc"><path d="M 32.113281 38.074219 L 32.457031 38.261719 L 32.183594 38.765625 L 31.839844 38.578125 Z M 32.113281 38.074219 " clip-rule="nonzero"/></clipPath><clipPath id="5bde4fb7e8"><path d="M 32.113281 38.074219 L 32.457031 38.261719 L 32.183594 38.765625 L 31.839844 38.578125 Z M 32.113281 38.074219 " clip-rule="nonzero"/></clipPath><clipPath id="8b68ba84d9"><path d="M 32 37 L 34 37 L 34 38 L 32 38 Z M 32 37 " clip-rule="nonzero"/></clipPath><clipPath id="21e9b50ecd"><path d="M 32.734375 37.265625 L 33.035156 37.515625 L 32.667969 37.957031 L 32.367188 37.710938 Z M 32.734375 37.265625 " clip-rule="nonzero"/></clipPath><clipPath id="cc83611a29"><path d="M 32.734375 37.265625 L 33.035156 37.515625 L 32.667969 37.957031 L 32.367188 37.710938 Z M 32.734375 37.265625 " clip-rule="nonzero"/></clipPath><clipPath id="b8e2d2369b"><path d="M 33 36 L 34 36 L 34 38 L 33 38 Z M 33 36 " clip-rule="nonzero"/></clipPath><clipPath id="6160feb881"><path d="M 33.421875 36.527344 L 33.714844 36.785156 L 33.332031 37.214844 L 33.039062 36.957031 Z M 33.421875 36.527344 " clip-rule="nonzero"/></clipPath><clipPath id="78613b6cf9"><path d="M 33.421875 36.527344 L 33.714844 36.785156 L 33.332031 37.214844 L 33.039062 36.957031 Z M 33.421875 36.527344 " clip-rule="nonzero"/></clipPath><clipPath id="3c541315c3"><path d="M 33 35 L 35 35 L 35 37 L 33 37 Z M 33 35 " clip-rule="nonzero"/></clipPath><clipPath id="d0b95eb919"><path d="M 34.117188 35.84375 L 34.394531 36.121094 L 33.988281 36.527344 L 33.714844 36.25 Z M 34.117188 35.84375 " clip-rule="nonzero"/></clipPath><clipPath id="1200ef1f9f"><path d="M 34.117188 35.84375 L 34.394531 36.121094 L 33.988281 36.527344 L 33.714844 36.25 Z M 34.117188 35.84375 " clip-rule="nonzero"/></clipPath><clipPath id="055ebe244a"><path d="M 34 35 L 36 35 L 36 36 L 34 36 Z M 34 35 " clip-rule="nonzero"/></clipPath><clipPath id="e22751de1a"><path d="M 34.894531 35.164062 L 35.171875 35.4375 L 34.765625 35.84375 L 34.488281 35.566406 Z M 34.894531 35.164062 " clip-rule="nonzero"/></clipPath><clipPath id="3cb3dd3e37"><path d="M 34.894531 35.164062 L 35.171875 35.4375 L 34.765625 35.84375 L 34.488281 35.566406 Z M 34.894531 35.164062 " clip-rule="nonzero"/></clipPath><clipPath id="f2737d9769"><path d="M 35 34 L 36 34 L 36 36 L 35 36 Z M 35 34 " clip-rule="nonzero"/></clipPath><clipPath id="1d816b8cdf"><path d="M 35.578125 34.46875 L 35.863281 34.734375 L 35.472656 35.15625 L 35.1875 34.890625 Z M 35.578125 34.46875 " clip-rule="nonzero"/></clipPath><clipPath id="c7b99bda2e"><path d="M 35.578125 34.46875 L 35.863281 34.734375 L 35.472656 35.15625 L 35.1875 34.890625 Z M 35.578125 34.46875 " clip-rule="nonzero"/></clipPath><clipPath id="ef00c5d142"><path d="M 35 33 L 37 33 L 37 35 L 35 35 Z M 35 33 " clip-rule="nonzero"/></clipPath><clipPath id="ab840c5010"><path d="M 36.253906 33.785156 L 36.539062 34.050781 L 36.148438 34.46875 L 35.863281 34.203125 Z M 36.253906 33.785156 " clip-rule="nonzero"/></clipPath><clipPath id="0ad1fd0b99"><path d="M 36.253906 33.785156 L 36.539062 34.050781 L 36.148438 34.46875 L 35.863281 34.203125 Z M 36.253906 33.785156 " clip-rule="nonzero"/></clipPath><clipPath id="2dc8fb4e94"><path d="M 36 33 L 38 33 L 38 34 L 36 34 Z M 36 33 " clip-rule="nonzero"/></clipPath><clipPath id="0d0904446c"><path d="M 36.929688 33.097656 L 37.214844 33.363281 L 36.828125 33.785156 L 36.539062 33.519531 Z M 36.929688 33.097656 " clip-rule="nonzero"/></clipPath><clipPath id="3b47e95592"><path d="M 36.929688 33.097656 L 37.214844 33.363281 L 36.828125 33.785156 L 36.539062 33.519531 Z M 36.929688 33.097656 " clip-rule="nonzero"/></clipPath><clipPath id="edf2d026b1"><path d="M 37 32 L 38 32 L 38 34 L 37 34 Z M 37 32 " clip-rule="nonzero"/></clipPath><clipPath id="d06753897d"><path d="M 37.605469 32.410156 L 37.894531 32.675781 L 37.503906 33.097656 L 37.214844 32.832031 Z M 37.605469 32.410156 " clip-rule="nonzero"/></clipPath><clipPath id="d4c8bb1dd1"><path d="M 37.605469 32.410156 L 37.894531 32.675781 L 37.503906 33.097656 L 37.214844 32.832031 Z M 37.605469 32.410156 " clip-rule="nonzero"/></clipPath><clipPath id="adad31966c"><path d="M 37 31 L 39 31 L 39 33 L 37 33 Z M 37 31 " clip-rule="nonzero"/></clipPath><clipPath id="d0d58854ba"><path d="M 38.28125 31.722656 L 38.570312 31.988281 L 38.179688 32.410156 L 37.894531 32.144531 Z M 38.28125 31.722656 " clip-rule="nonzero"/></clipPath><clipPath id="8d217e7ef3"><path d="M 38.28125 31.722656 L 38.570312 31.988281 L 38.179688 32.410156 L 37.894531 32.144531 Z M 38.28125 31.722656 " clip-rule="nonzero"/></clipPath><clipPath id="9a20680017"><path d="M 38 31 L 40 31 L 40 32 L 38 32 Z M 38 31 " clip-rule="nonzero"/></clipPath><clipPath id="d1a9f3a586"><path d="M 38.960938 31.039062 L 39.246094 31.304688 L 38.855469 31.726562 L 38.570312 31.460938 Z M 38.960938 31.039062 " clip-rule="nonzero"/></clipPath><clipPath id="453d683373"><path d="M 38.960938 31.039062 L 39.246094 31.304688 L 38.855469 31.722656 L 38.570312 31.460938 Z M 38.960938 31.039062 " clip-rule="nonzero"/></clipPath><clipPath id="cb0e026601"><path d="M 39 30 L 40 30 L 40 32 L 39 32 Z M 39 30 " clip-rule="nonzero"/></clipPath><clipPath id="6125cc1066"><path d="M 39.636719 30.351562 L 39.921875 30.617188 L 39.53125 31.039062 L 39.246094 30.773438 Z M 39.636719 30.351562 " clip-rule="nonzero"/></clipPath><clipPath id="ec24059463"><path d="M 39.636719 30.351562 L 39.921875 30.617188 L 39.53125 31.039062 L 39.246094 30.773438 Z M 39.636719 30.351562 " clip-rule="nonzero"/></clipPath><clipPath id="e86cb4e3aa"><path d="M 39 29 L 41 29 L 41 31 L 39 31 Z M 39 29 " clip-rule="nonzero"/></clipPath><clipPath id="93b0512a5b"><path d="M 40.179688 29.660156 L 40.503906 29.875 L 40.1875 30.355469 L 39.863281 30.136719 Z M 40.179688 29.660156 " clip-rule="nonzero"/></clipPath><clipPath id="4ca0be52b4"><path d="M 40.179688 29.660156 L 40.503906 29.875 L 40.1875 30.355469 L 39.863281 30.136719 Z M 40.179688 29.660156 " clip-rule="nonzero"/></clipPath><clipPath id="d189ac160a"><path d="M 40 28 L 41 28 L 41 30 L 40 30 Z M 40 28 " clip-rule="nonzero"/></clipPath><clipPath id="0d8bc9cbca"><path d="M 40.46875 28.78125 L 40.835938 28.914062 L 40.644531 29.453125 L 40.277344 29.320312 Z M 40.46875 28.78125 " clip-rule="nonzero"/></clipPath><clipPath id="2398d7291d"><path d="M 40.46875 28.78125 L 40.835938 28.914062 L 40.644531 29.453125 L 40.277344 29.320312 Z M 40.46875 28.78125 " clip-rule="nonzero"/></clipPath><clipPath id="e6b74ebe6a"><path d="M 40 27 L 42 27 L 42 29 L 40 29 Z M 40 27 " clip-rule="nonzero"/></clipPath><clipPath id="d3cf53b175"><path d="M 40.695312 27.898438 L 41.074219 27.996094 L 40.933594 28.550781 L 40.554688 28.457031 Z M 40.695312 27.898438 " clip-rule="nonzero"/></clipPath><clipPath id="8986059e15"><path d="M 40.695312 27.898438 L 41.074219 27.996094 L 40.933594 28.550781 L 40.554688 28.457031 Z M 40.695312 27.898438 " clip-rule="nonzero"/></clipPath><clipPath id="7ee191438d"><path d="M 40 27 L 42 27 L 42 28 L 40 28 Z M 40 27 " clip-rule="nonzero"/></clipPath><clipPath id="ff297dd025"><path d="M 40.722656 27.0625 L 41.113281 27.042969 L 41.144531 27.613281 L 40.753906 27.636719 Z M 40.722656 27.0625 " clip-rule="nonzero"/></clipPath><clipPath id="142e0d5e61"><path d="M 40.722656 27.0625 L 41.113281 27.042969 L 41.144531 27.613281 L 40.753906 27.636719 Z M 40.722656 27.0625 " clip-rule="nonzero"/></clipPath><clipPath id="d94574f727"><path d="M 40 26 L 42 26 L 42 27 L 40 27 Z M 40 26 " clip-rule="nonzero"/></clipPath><clipPath id="b7ab1fa4d7"><path d="M 40.625 26.128906 L 41.015625 26.105469 L 41.046875 26.679688 L 40.65625 26.703125 Z M 40.625 26.128906 " clip-rule="nonzero"/></clipPath><clipPath id="15ea22e657"><path d="M 40.625 26.128906 L 41.015625 26.105469 L 41.046875 26.679688 L 40.65625 26.703125 Z M 40.625 26.128906 " clip-rule="nonzero"/></clipPath><clipPath id="9761c28adc"><path d="M 40 25 L 41 25 L 41 26 L 40 26 Z M 40 25 " clip-rule="nonzero"/></clipPath><clipPath id="77e4aca3e1"><path d="M 40.359375 25.214844 L 40.734375 25.105469 L 40.890625 25.660156 L 40.515625 25.765625 Z M 40.359375 25.214844 " clip-rule="nonzero"/></clipPath><clipPath id="cb2ea35a60"><path d="M 40.359375 25.214844 L 40.734375 25.105469 L 40.890625 25.660156 L 40.515625 25.765625 Z M 40.359375 25.214844 " clip-rule="nonzero"/></clipPath><clipPath id="1652559f79"><path d="M 39 24 L 41 24 L 41 25 L 39 25 Z M 39 24 " clip-rule="nonzero"/></clipPath><clipPath id="1acac90fbb"><path d="M 39.996094 24.367188 L 40.347656 24.199219 L 40.597656 24.714844 L 40.246094 24.886719 Z M 39.996094 24.367188 " clip-rule="nonzero"/></clipPath><clipPath id="ecd4e648fa"><path d="M 39.996094 24.367188 L 40.347656 24.199219 L 40.597656 24.714844 L 40.246094 24.886719 Z M 39.996094 24.367188 " clip-rule="nonzero"/></clipPath><clipPath id="767f67f983"><path d="M 39 23 L 41 23 L 41 24 L 39 24 Z M 39 23 " clip-rule="nonzero"/></clipPath><clipPath id="8b8b686717"><path d="M 39.554688 23.476562 L 39.90625 23.308594 L 40.15625 23.824219 L 39.804688 23.996094 Z M 39.554688 23.476562 " clip-rule="nonzero"/></clipPath><clipPath id="9367cb31ba"><path d="M 39.554688 23.476562 L 39.90625 23.308594 L 40.15625 23.824219 L 39.804688 23.996094 Z M 39.554688 23.476562 " clip-rule="nonzero"/></clipPath><clipPath id="f8ee0fe718"><path d="M 38 22 L 40 22 L 40 24 L 38 24 Z M 38 22 " clip-rule="nonzero"/></clipPath><clipPath id="33482bae63"><path d="M 38.871094 23.066406 L 39.035156 22.710938 L 39.554688 22.949219 L 39.394531 23.304688 Z M 38.871094 23.066406 " clip-rule="nonzero"/></clipPath><clipPath id="a842e77c58"><path d="M 38.871094 23.066406 L 39.035156 22.710938 L 39.554688 22.949219 L 39.394531 23.304688 Z M 38.871094 23.066406 " clip-rule="nonzero"/></clipPath><clipPath id="b385f327f4"><path d="M 38 23 L 39 23 L 39 24 L 38 24 Z M 38 23 " clip-rule="nonzero"/></clipPath><clipPath id="91040604ae"><path d="M 38.332031 23.769531 L 38.03125 23.523438 L 38.390625 23.078125 L 38.695312 23.324219 Z M 38.332031 23.769531 " clip-rule="nonzero"/></clipPath><clipPath id="d873d83e44"><path d="M 38.332031 23.769531 L 38.03125 23.523438 L 38.390625 23.078125 L 38.695312 23.324219 Z M 38.332031 23.769531 " clip-rule="nonzero"/></clipPath><clipPath id="f7c2ac95f6"><path d="M 37 23 L 39 23 L 39 25 L 37 25 Z M 37 23 " clip-rule="nonzero"/></clipPath><clipPath id="0bc8bb8fe0"><path d="M 37.871094 24.53125 L 37.539062 24.328125 L 37.839844 23.839844 L 38.171875 24.042969 Z M 37.871094 24.53125 " clip-rule="nonzero"/></clipPath><clipPath id="5b7472874c"><path d="M 37.871094 24.53125 L 37.539062 24.328125 L 37.839844 23.839844 L 38.171875 24.042969 Z M 37.871094 24.53125 " clip-rule="nonzero"/></clipPath><clipPath id="81518a9ba0"><path d="M 37 24 L 38 24 L 38 26 L 37 26 Z M 37 24 " clip-rule="nonzero"/></clipPath><clipPath id="6a12ae9a51"><path d="M 37.492188 25.367188 L 37.136719 25.203125 L 37.382812 24.683594 L 37.734375 24.847656 Z M 37.492188 25.367188 " clip-rule="nonzero"/></clipPath><clipPath id="edd699bd53"><path d="M 37.492188 25.367188 L 37.136719 25.203125 L 37.382812 24.683594 L 37.734375 24.847656 Z M 37.492188 25.367188 " clip-rule="nonzero"/></clipPath><clipPath id="3caef058c5"><path d="M 36 25 L 38 25 L 38 27 L 36 27 Z M 36 25 " clip-rule="nonzero"/></clipPath><clipPath id="f0412544a9"><path d="M 37.265625 26.371094 L 36.882812 26.289062 L 37.007812 25.726562 L 37.390625 25.8125 Z M 37.265625 26.371094 " clip-rule="nonzero"/></clipPath><clipPath id="c63358a4f7"><path d="M 37.265625 26.371094 L 36.882812 26.289062 L 37.007812 25.726562 L 37.390625 25.8125 Z M 37.265625 26.371094 " clip-rule="nonzero"/></clipPath><clipPath id="de82369b93"><path d="M 36 26 L 38 26 L 38 28 L 36 28 Z M 36 26 " clip-rule="nonzero"/></clipPath><clipPath id="096a70ef86"><path d="M 37.101562 27.320312 L 36.71875 27.242188 L 36.832031 26.679688 L 37.214844 26.757812 Z M 37.101562 27.320312 " clip-rule="nonzero"/></clipPath><clipPath id="a9c44ba269"><path d="M 37.101562 27.320312 L 36.71875 27.242188 L 36.832031 26.679688 L 37.214844 26.757812 Z M 37.101562 27.320312 " clip-rule="nonzero"/></clipPath><clipPath id="3ff9ba8e03"><path d="M 36 27 L 38 27 L 38 29 L 36 29 Z M 36 27 " clip-rule="nonzero"/></clipPath><clipPath id="f763b61fde"><path d="M 37.054688 28.238281 L 36.664062 28.203125 L 36.714844 27.632812 L 37.105469 27.664062 Z M 37.054688 28.238281 " clip-rule="nonzero"/></clipPath><clipPath id="76fe3ebdba"><path d="M 37.054688 28.238281 L 36.664062 28.203125 L 36.714844 27.632812 L 37.105469 27.667969 Z M 37.054688 28.238281 " clip-rule="nonzero"/></clipPath><clipPath id="e9865a3e1d"><path d="M 36.605469 28.566406 L 36.996094 28.566406 L 36.996094 29.140625 L 36.605469 29.140625 Z M 36.605469 28.566406 " clip-rule="nonzero"/></clipPath><clipPath id="ee3c1e155c"><path d="M 36.628906 29.648438 L 37.019531 29.648438 L 37.019531 30.222656 L 36.628906 30.222656 Z M 36.628906 29.648438 " clip-rule="nonzero"/></clipPath><clipPath id="a0705dc32d"><path d="M 36 30 L 38 30 L 38 32 L 36 32 Z M 36 30 " clip-rule="nonzero"/></clipPath><clipPath id="09bad94689"><path d="M 37.082031 31.277344 L 36.695312 31.328125 L 36.617188 30.761719 L 37.003906 30.707031 Z M 37.082031 31.277344 " clip-rule="nonzero"/></clipPath><clipPath id="e367fcc01b"><path d="M 37.082031 31.277344 L 36.695312 31.328125 L 36.617188 30.761719 L 37.003906 30.707031 Z M 37.082031 31.277344 " clip-rule="nonzero"/></clipPath><clipPath id="d0a7a5465d"><path d="M 36 31 L 38 31 L 38 33 L 36 33 Z M 36 31 " clip-rule="nonzero"/></clipPath><clipPath id="269b2a4c03"><path d="M 37.25 32.316406 L 36.863281 32.367188 L 36.789062 31.800781 L 37.175781 31.746094 Z M 37.25 32.316406 " clip-rule="nonzero"/></clipPath><clipPath id="49e80b2fd7"><path d="M 37.25 32.316406 L 36.863281 32.367188 L 36.789062 31.800781 L 37.175781 31.746094 Z M 37.25 32.316406 " clip-rule="nonzero"/></clipPath><clipPath id="8be6c81f29"><path d="M 36 32 L 38 32 L 38 34 L 36 34 Z M 36 32 " clip-rule="nonzero"/></clipPath><clipPath id="d69f0055bf"><path d="M 37.421875 33.355469 L 37.035156 33.40625 L 36.957031 32.835938 L 37.34375 32.785156 Z M 37.421875 33.355469 " clip-rule="nonzero"/></clipPath><clipPath id="d56c96f577"><path d="M 37.421875 33.355469 L 37.035156 33.40625 L 36.957031 32.835938 L 37.34375 32.785156 Z M 37.421875 33.355469 " clip-rule="nonzero"/></clipPath><clipPath id="c2536f52d5"><path d="M 37 33 L 38 33 L 38 35 L 37 35 Z M 37 33 " clip-rule="nonzero"/></clipPath><clipPath id="5e5c6fe7c0"><path d="M 37.671875 34.3125 L 37.289062 34.394531 L 37.171875 33.832031 L 37.550781 33.75 Z M 37.671875 34.3125 " clip-rule="nonzero"/></clipPath><clipPath id="7f8a3ebdd2"><path d="M 37.671875 34.3125 L 37.289062 34.394531 L 37.171875 33.832031 L 37.554688 33.75 Z M 37.671875 34.3125 " clip-rule="nonzero"/></clipPath><clipPath id="8f77496bd1"><path d="M 37 34 L 38 34 L 38 36 L 37 36 Z M 37 34 " clip-rule="nonzero"/></clipPath><clipPath id="f844df38b9"><path d="M 37.890625 35.265625 L 37.511719 35.347656 L 37.390625 34.789062 L 37.773438 34.707031 Z M 37.890625 35.265625 " clip-rule="nonzero"/></clipPath><clipPath id="9dff4d133c"><path d="M 37.890625 35.265625 L 37.511719 35.347656 L 37.390625 34.789062 L 37.773438 34.707031 Z M 37.890625 35.265625 " clip-rule="nonzero"/></clipPath><clipPath id="7d07581b9a"><path d="M 37 35 L 39 35 L 39 37 L 37 37 Z M 37 35 " clip-rule="nonzero"/></clipPath><clipPath id="6bbc25fe73"><path d="M 38.113281 36.222656 L 37.730469 36.304688 L 37.609375 35.742188 L 37.992188 35.660156 Z M 38.113281 36.222656 " clip-rule="nonzero"/></clipPath><clipPath id="4df6f2dfab"><path d="M 38.113281 36.222656 L 37.730469 36.304688 L 37.609375 35.742188 L 37.992188 35.660156 Z M 38.113281 36.222656 " clip-rule="nonzero"/></clipPath><clipPath id="2bcd86643f"><path d="M 37 36 L 39 36 L 39 38 L 37 38 Z M 37 36 " clip-rule="nonzero"/></clipPath><clipPath id="ea5ca77ca5"><path d="M 38.332031 37.175781 L 37.949219 37.257812 L 37.828125 36.699219 L 38.210938 36.617188 Z M 38.332031 37.175781 " clip-rule="nonzero"/></clipPath><clipPath id="8240ff9414"><path d="M 38.332031 37.175781 L 37.949219 37.257812 L 37.828125 36.699219 L 38.210938 36.617188 Z M 38.332031 37.175781 " clip-rule="nonzero"/></clipPath><clipPath id="98647d9943"><path d="M 38 37 L 39 37 L 39 39 L 38 39 Z M 38 37 " clip-rule="nonzero"/></clipPath><clipPath id="ef994e7754"><path d="M 38.550781 38.132812 L 38.167969 38.214844 L 38.046875 37.652344 L 38.429688 37.570312 Z M 38.550781 38.132812 " clip-rule="nonzero"/></clipPath><clipPath id="ff449cf128"><path d="M 38.550781 38.132812 L 38.167969 38.214844 L 38.046875 37.652344 L 38.429688 37.570312 Z M 38.550781 38.132812 " clip-rule="nonzero"/></clipPath><clipPath id="88e63b47d3"><path d="M 38 38 L 39 38 L 39 40 L 38 40 Z M 38 38 " clip-rule="nonzero"/></clipPath><clipPath id="6f23d5a024"><path d="M 38.769531 39.089844 L 38.386719 39.167969 L 38.265625 38.609375 L 38.648438 38.527344 Z M 38.769531 39.089844 " clip-rule="nonzero"/></clipPath><clipPath id="7fa4752bb4"><path d="M 38.769531 39.089844 L 38.386719 39.167969 L 38.265625 38.609375 L 38.648438 38.527344 Z M 38.769531 39.089844 " clip-rule="nonzero"/></clipPath><clipPath id="8a0a6374b4"><path d="M 38 39 L 39 39 L 39 41 L 38 41 Z M 38 39 " clip-rule="nonzero"/></clipPath><clipPath id="b35603ae15"><path d="M 38.988281 40.042969 L 38.605469 40.125 L 38.488281 39.5625 L 38.867188 39.480469 Z M 38.988281 40.042969 " clip-rule="nonzero"/></clipPath><clipPath id="fbbaf70355"><path d="M 38.988281 40.042969 L 38.605469 40.125 L 38.488281 39.5625 L 38.867188 39.480469 Z M 38.988281 40.042969 " clip-rule="nonzero"/></clipPath><clipPath id="84c0345dd0"><path d="M 38 40 L 40 40 L 40 42 L 38 42 Z M 38 40 " clip-rule="nonzero"/></clipPath><clipPath id="cc442e5dd1"><path d="M 39.207031 41 L 38.828125 41.082031 L 38.707031 40.519531 L 39.089844 40.4375 Z M 39.207031 41 " clip-rule="nonzero"/></clipPath><clipPath id="14c32e2381"><path d="M 39.207031 41 L 38.828125 41.082031 L 38.707031 40.519531 L 39.089844 40.4375 Z M 39.207031 41 " clip-rule="nonzero"/></clipPath><clipPath id="d1a15d5a6c"><path d="M 38 41 L 40 41 L 40 43 L 38 43 Z M 38 41 " clip-rule="nonzero"/></clipPath><clipPath id="63ab1bf2bc"><path d="M 39.425781 41.953125 L 39.046875 42.035156 L 38.925781 41.472656 L 39.308594 41.390625 Z M 39.425781 41.953125 " clip-rule="nonzero"/></clipPath><clipPath id="171389f889"><path d="M 39.425781 41.953125 L 39.046875 42.035156 L 38.925781 41.472656 L 39.308594 41.394531 Z M 39.425781 41.953125 " clip-rule="nonzero"/></clipPath><clipPath id="76777fcb29"><path d="M 39 42 L 40 42 L 40 43 L 39 43 Z M 39 42 " clip-rule="nonzero"/></clipPath><clipPath id="f6152f5a87"><path d="M 39.648438 42.910156 L 39.265625 42.992188 L 39.144531 42.429688 L 39.527344 42.347656 Z M 39.648438 42.910156 " clip-rule="nonzero"/></clipPath><clipPath id="3e4c8953f9"><path d="M 39.648438 42.910156 L 39.265625 42.992188 L 39.144531 42.429688 L 39.527344 42.347656 Z M 39.648438 42.910156 " clip-rule="nonzero"/></clipPath><clipPath id="b52515311e"><path d="M 39 43 L 40 43 L 40 44 L 39 44 Z M 39 43 " clip-rule="nonzero"/></clipPath><clipPath id="e335401adf"><path d="M 39.867188 43.863281 L 39.484375 43.945312 L 39.363281 43.382812 L 39.746094 43.304688 Z M 39.867188 43.863281 " clip-rule="nonzero"/></clipPath><clipPath id="75a93648c9"><path d="M 39.867188 43.863281 L 39.484375 43.945312 L 39.363281 43.386719 L 39.746094 43.304688 Z M 39.867188 43.863281 " clip-rule="nonzero"/></clipPath><clipPath id="eeaf7f8bff"><path d="M 39 44 L 41 44 L 41 45 L 39 45 Z M 39 44 " clip-rule="nonzero"/></clipPath><clipPath id="06a29cc0da"><path d="M 40.085938 44.820312 L 39.703125 44.902344 L 39.582031 44.339844 L 39.964844 44.257812 Z M 40.085938 44.820312 " clip-rule="nonzero"/></clipPath><clipPath id="8164696a7f"><path d="M 40.085938 44.820312 L 39.703125 44.902344 L 39.582031 44.339844 L 39.964844 44.257812 Z M 40.085938 44.820312 " clip-rule="nonzero"/></clipPath><clipPath id="f434e05b39"><path d="M 39 45 L 41 45 L 41 46 L 39 46 Z M 39 45 " clip-rule="nonzero"/></clipPath><clipPath id="f4f34fd786"><path d="M 40.304688 45.773438 L 39.921875 45.855469 L 39.804688 45.296875 L 40.183594 45.214844 Z M 40.304688 45.773438 " clip-rule="nonzero"/></clipPath><clipPath id="aa1970bd3f"><path d="M 40.304688 45.773438 L 39.921875 45.855469 L 39.804688 45.296875 L 40.183594 45.214844 Z M 40.304688 45.773438 " clip-rule="nonzero"/></clipPath><clipPath id="990f35ab91"><path d="M 40 47 L 41 47 L 41 48 L 40 48 Z M 40 47 " clip-rule="nonzero"/></clipPath><clipPath id="809b9f78db"><path d="M 40.742188 47.683594 L 40.363281 47.765625 L 40.242188 47.207031 L 40.625 47.125 Z M 40.742188 47.683594 " clip-rule="nonzero"/></clipPath><clipPath id="0198301e3c"><path d="M 40.742188 47.683594 L 40.363281 47.765625 L 40.242188 47.207031 L 40.625 47.125 Z M 40.742188 47.683594 " clip-rule="nonzero"/></clipPath><clipPath id="bd354ee8c0"><path d="M 40 48 L 41 48 L 41 49 L 40 49 Z M 40 48 " clip-rule="nonzero"/></clipPath><clipPath id="f57465c427"><path d="M 40.800781 48.652344 L 40.410156 48.671875 L 40.378906 48.101562 L 40.769531 48.078125 Z M 40.800781 48.652344 " clip-rule="nonzero"/></clipPath><clipPath id="07253619f3"><path d="M 40.800781 48.652344 L 40.410156 48.671875 L 40.378906 48.101562 L 40.769531 48.078125 Z M 40.800781 48.652344 " clip-rule="nonzero"/></clipPath><clipPath id="a1d21e0963"><path d="M 40 48 L 41 48 L 41 50 L 40 50 Z M 40 48 " clip-rule="nonzero"/></clipPath><clipPath id="41b133f87d"><path d="M 40.722656 49.59375 L 40.332031 49.554688 L 40.386719 48.984375 L 40.777344 49.023438 Z M 40.722656 49.59375 " clip-rule="nonzero"/></clipPath><clipPath id="928378b316"><path d="M 40.722656 49.59375 L 40.332031 49.554688 L 40.386719 48.984375 L 40.777344 49.023438 Z M 40.722656 49.59375 " clip-rule="nonzero"/></clipPath><clipPath id="b0b87dccbd"><path d="M 40 49 L 41 49 L 41 51 L 40 51 Z M 40 49 " clip-rule="nonzero"/></clipPath><clipPath id="ab71971b26"><path d="M 40.46875 50.5625 L 40.097656 50.441406 L 40.273438 49.894531 L 40.644531 50.015625 Z M 40.46875 50.5625 " clip-rule="nonzero"/></clipPath><clipPath id="f89063fa27"><path d="M 40.46875 50.5625 L 40.097656 50.441406 L 40.273438 49.894531 L 40.644531 50.015625 Z M 40.46875 50.5625 " clip-rule="nonzero"/></clipPath><clipPath id="0a26623b4a"><path d="M 39 50 L 41 50 L 41 52 L 39 52 Z M 39 50 " clip-rule="nonzero"/></clipPath><clipPath id="ffe3be45e8"><path d="M 39.808594 51.566406 L 39.507812 51.316406 L 39.871094 50.875 L 40.171875 51.121094 Z M 39.808594 51.566406 " clip-rule="nonzero"/></clipPath><clipPath id="d950908b13"><path d="M 39.808594 51.566406 L 39.507812 51.316406 L 39.871094 50.875 L 40.171875 51.121094 Z M 39.808594 51.566406 " clip-rule="nonzero"/></clipPath><clipPath id="bdbdcb61d4"><path d="M 38 51 L 40 51 L 40 53 L 38 53 Z M 38 51 " clip-rule="nonzero"/></clipPath><clipPath id="75d2662725"><path d="M 38.90625 52.191406 L 38.714844 51.851562 L 39.210938 51.566406 L 39.40625 51.90625 Z M 38.90625 52.191406 " clip-rule="nonzero"/></clipPath><clipPath id="61b8c3a744"><path d="M 38.90625 52.191406 L 38.714844 51.851562 L 39.210938 51.566406 L 39.40625 51.90625 Z M 38.90625 52.191406 " clip-rule="nonzero"/></clipPath><clipPath id="1476be5d16"><path d="M 37 51 L 39 51 L 39 53 L 37 53 Z M 37 51 " clip-rule="nonzero"/></clipPath><clipPath id="95e317e2f6"><path d="M 37.832031 52.425781 L 37.777344 52.039062 L 38.34375 51.957031 L 38.398438 52.34375 Z M 37.832031 52.425781 " clip-rule="nonzero"/></clipPath><clipPath id="cd0b6ebd8c"><path d="M 37.832031 52.425781 L 37.777344 52.039062 L 38.34375 51.957031 L 38.398438 52.34375 Z M 37.832031 52.425781 " clip-rule="nonzero"/></clipPath><clipPath id="c70b5628f2"><path d="M 36 52 L 38 52 L 38 53 L 36 53 Z M 36 52 " clip-rule="nonzero"/></clipPath><clipPath id="38636a5d6b"><path d="M 36.789062 52.441406 L 36.804688 52.054688 L 37.378906 52.074219 L 37.363281 52.460938 Z M 36.789062 52.441406 " clip-rule="nonzero"/></clipPath><clipPath id="c55f3e74d6"><path d="M 36.789062 52.441406 L 36.804688 52.054688 L 37.378906 52.074219 L 37.363281 52.460938 Z M 36.789062 52.441406 " clip-rule="nonzero"/></clipPath><clipPath id="33b6e8bce2"><path d="M 35 51 L 37 51 L 37 53 L 35 53 Z M 35 51 " clip-rule="nonzero"/></clipPath><clipPath id="9b4bb99c40"><path d="M 35.769531 52.160156 L 35.914062 51.800781 L 36.445312 52.015625 L 36.300781 52.375 Z M 35.769531 52.160156 " clip-rule="nonzero"/></clipPath><clipPath id="6a55cd8dbb"><path d="M 35.769531 52.160156 L 35.914062 51.800781 L 36.445312 52.015625 L 36.300781 52.375 Z M 35.769531 52.160156 " clip-rule="nonzero"/></clipPath><clipPath id="dc90beea65"><path d="M 34 51 L 36 51 L 36 52 L 34 52 Z M 34 51 " clip-rule="nonzero"/></clipPath><clipPath id="39ea53851f"><path d="M 34.882812 51.703125 L 35.074219 51.363281 L 35.574219 51.640625 L 35.382812 51.984375 Z M 34.882812 51.703125 " clip-rule="nonzero"/></clipPath><clipPath id="bb14fbad4a"><path d="M 34.882812 51.703125 L 35.074219 51.363281 L 35.574219 51.640625 L 35.382812 51.984375 Z M 34.882812 51.703125 " clip-rule="nonzero"/></clipPath><clipPath id="4a510d1ada"><path d="M 34 50 L 35 50 L 35 52 L 34 52 Z M 34 50 " clip-rule="nonzero"/></clipPath><clipPath id="5c6c2f9801"><path d="M 34.183594 50.9375 L 34.5 50.707031 L 34.835938 51.171875 L 34.523438 51.402344 Z M 34.183594 50.9375 " clip-rule="nonzero"/></clipPath><clipPath id="3229046484"><path d="M 34.183594 50.9375 L 34.5 50.707031 L 34.835938 51.171875 L 34.523438 51.402344 Z M 34.183594 50.9375 " clip-rule="nonzero"/></clipPath><clipPath id="1ff4ebe9a7"><path d="M 33 49 L 35 49 L 35 51 L 33 51 Z M 33 49 " clip-rule="nonzero"/></clipPath><clipPath id="5a8450778b"><path d="M 33.878906 50 L 34.261719 49.902344 L 34.398438 50.460938 L 34.019531 50.554688 Z M 33.878906 50 " clip-rule="nonzero"/></clipPath><clipPath id="8d184480fb"><path d="M 33.878906 50 L 34.261719 49.902344 L 34.398438 50.460938 L 34.019531 50.554688 Z M 33.878906 50 " clip-rule="nonzero"/></clipPath><clipPath id="f91105707f"><path d="M 33 48 L 35 48 L 35 50 L 33 50 Z M 33 48 " clip-rule="nonzero"/></clipPath><clipPath id="5b2397ab33"><path d="M 33.898438 48.996094 L 34.289062 49.035156 L 34.230469 49.605469 L 33.839844 49.566406 Z M 33.898438 48.996094 " clip-rule="nonzero"/></clipPath><clipPath id="626fc43e2a"><path d="M 33.898438 48.996094 L 34.289062 49.035156 L 34.230469 49.605469 L 33.839844 49.566406 Z M 33.898438 48.996094 " clip-rule="nonzero"/></clipPath></defs><rect x="-7.5" width="90" fill="#ffffff" y="-7.5" height="89.999996" fill-opacity="1"/><rect x="-7.5" width="90" fill="#ffffff" y="-7.5" height="89.999996" fill-opacity="1"/><g clip-path="url(#40ffd35954)"><g clip-path="url(#482045195a)"><g clip-path="url(#26dc01bc66)"><path fill="#222020" d="M 40.523438 46.730469 L 40.140625 46.8125 L 40.023438 46.25 L 40.402344 46.167969 Z M 40.523438 46.730469 " fill-opacity="1" fill-rule="nonzero"/></g></g></g><g clip-path="url(#d151eea20b)"><g clip-path="url(#05d85fe528)"><g clip-path="url(#8206e44104)"><path fill="#222020" d="M 36.210938 43.351562 L 36.386719 43.003906 L 36.898438 43.261719 L 36.722656 43.613281 Z M 36.210938 43.351562 " fill-opacity="1" fill-rule="nonzero"/></g></g></g><g clip-path="url(#697e3c181f)"><g clip-path="url(#751b6aa41c)"><g clip-path="url(#f9307e8868)"><path fill="#222020" d="M 35.539062 42.640625 L 35.835938 42.386719 L 36.207031 42.824219 L 35.910156 43.078125 Z M 35.539062 42.640625 " fill-opacity="1" fill-rule="nonzero"/></g></g></g><g clip-path="url(#59cbf280bd)"><g clip-path="url(#d210fe091a)"><g clip-path="url(#36cf5bc647)"><path fill="#222020" d="M 35.195312 41.785156 L 35.574219 41.695312 L 35.703125 42.253906 L 35.324219 42.34375 Z M 35.195312 41.785156 " fill-opacity="1" fill-rule="nonzero"/></g></g></g><g clip-path="url(#cdb4b386e4)"><g clip-path="url(#e29bd9685e)"><g clip-path="url(#cdfb3c1f08)"><path fill="#222020" d="M 35.082031 40.871094 L 35.472656 40.847656 L 35.507812 41.421875 L 35.121094 41.445312 Z M 35.082031 40.871094 " fill-opacity="1" fill-rule="nonzero"/></g></g></g><g clip-path="url(#cdd7cc3063)"><g clip-path="url(#b28c5016ba)"><g clip-path="url(#2f1400faa3)"><path fill="#222020" d="M 35.425781 39.9375 L 35.792969 40.078125 L 35.585938 40.613281 L 35.222656 40.476562 Z M 35.425781 39.9375 " fill-opacity="1" fill-rule="nonzero"/></g></g></g><g clip-path="url(#25f0e66bc3)"><g clip-path="url(#655977957c)"><g clip-path="url(#43cb3ddd7a)"><path fill="#222020" d="M 35.984375 39.035156 L 36.296875 39.265625 L 35.960938 39.730469 L 35.644531 39.5 Z M 35.984375 39.035156 " fill-opacity="1" fill-rule="nonzero"/></g></g></g><g clip-path="url(#c6847ae203)"><g clip-path="url(#17060f8a63)"><g clip-path="url(#7030650445)"><path fill="#222020" d="M 36.789062 38.382812 L 37.019531 38.699219 L 36.554688 39.035156 L 36.324219 38.71875 Z M 36.789062 38.382812 " fill-opacity="1" fill-rule="nonzero"/></g></g></g><g clip-path="url(#35ced0d091)"><g clip-path="url(#bda8f67aa5)"><g clip-path="url(#f5518c6a73)"><path fill="#222020" d="M 37.683594 37.976562 L 37.832031 38.339844 L 37.300781 38.554688 L 37.152344 38.195312 Z M 37.683594 37.976562 " fill-opacity="1" fill-rule="nonzero"/></g></g></g><g clip-path="url(#ee82e9e096)"><path fill="#222020" d="M 38.699219 37.875 L 38.699219 38.265625 L 38.125 38.265625 L 38.125 37.875 Z M 38.699219 37.875 " fill-opacity="1" fill-rule="nonzero"/></g><g clip-path="url(#d2f53f9fcd)"><g clip-path="url(#dbe6cbac69)"><g clip-path="url(#8bfde8256a)"><path fill="#222020" d="M 40.617188 38.132812 L 40.507812 38.507812 L 39.957031 38.347656 L 40.066406 37.972656 Z M 40.617188 38.132812 " fill-opacity="1" fill-rule="nonzero"/></g></g></g><g clip-path="url(#4980dc7259)"><g clip-path="url(#e851e5552f)"><g clip-path="url(#78e87702da)"><path fill="#222020" d="M 41.464844 38.570312 L 41.269531 38.910156 L 40.773438 38.621094 L 40.96875 38.28125 Z M 41.464844 38.570312 " fill-opacity="1" fill-rule="nonzero"/></g></g></g><g clip-path="url(#4da2a1584f)"><g clip-path="url(#853b1d99ff)"><g clip-path="url(#bb03205f61)"><path fill="#222020" d="M 42.148438 39.105469 L 41.882812 39.390625 L 41.464844 38.996094 L 41.734375 38.710938 Z M 42.148438 39.105469 " fill-opacity="1" fill-rule="nonzero"/></g></g></g><g clip-path="url(#15c9df59a6)"><g clip-path="url(#692f6df2e5)"><g clip-path="url(#211ae861c2)"><path fill="#222020" d="M 42.613281 39.871094 L 42.273438 40.066406 L 41.988281 39.566406 L 42.328125 39.375 Z M 42.613281 39.871094 " fill-opacity="1" fill-rule="nonzero"/></g></g></g><g clip-path="url(#ab5de97333)"><g clip-path="url(#157d9ee5a3)"><g clip-path="url(#a1ebc5f6da)"><path fill="#222020" d="M 42.871094 40.777344 L 42.492188 40.871094 L 42.355469 40.3125 L 42.734375 40.21875 Z M 42.871094 40.777344 " fill-opacity="1" fill-rule="nonzero"/></g></g></g><g clip-path="url(#94c46e3048)"><g clip-path="url(#fb794e2507)"><g clip-path="url(#7140c07eb1)"><path fill="#222020" d="M 42.792969 42.652344 L 42.414062 42.570312 L 42.539062 42.007812 L 42.917969 42.09375 Z M 42.792969 42.652344 " fill-opacity="1" fill-rule="nonzero"/></g></g></g><g clip-path="url(#5dc55d7693)"><g clip-path="url(#3393f73941)"><g clip-path="url(#3d7c6572fa)"><path fill="#222020" d="M 42.480469 43.496094 L 42.121094 43.34375 L 42.347656 42.816406 L 42.707031 42.972656 Z M 42.480469 43.496094 " fill-opacity="1" fill-rule="nonzero"/></g></g></g><g clip-path="url(#494c9ae137)"><g clip-path="url(#cbb30c9fea)"><g clip-path="url(#ab072c2294)"><path fill="#222020" d="M 41.902344 44.273438 L 41.625 43.996094 L 42.03125 43.59375 L 42.308594 43.867188 Z M 41.902344 44.273438 " fill-opacity="1" fill-rule="nonzero"/></g></g></g><g clip-path="url(#5ca599f678)"><g clip-path="url(#e11e308481)"><g clip-path="url(#e3ec0a5e17)"><path fill="#222020" d="M 38.53125 46.019531 L 38.425781 45.640625 L 38.980469 45.488281 L 39.082031 45.867188 Z M 38.53125 46.019531 " fill-opacity="1" fill-rule="nonzero"/></g></g></g><g clip-path="url(#644a654f0d)"><g clip-path="url(#682b9f7335)"><g clip-path="url(#fe66268e60)"><path fill="#222020" d="M 39.464844 45.742188 L 39.34375 45.371094 L 39.886719 45.191406 L 40.007812 45.5625 Z M 39.464844 45.742188 " fill-opacity="1" fill-rule="nonzero"/></g></g></g><g clip-path="url(#41b98063a8)"><path fill="#222020" d="M 37.5625 46.03125 L 37.5625 45.640625 L 38.136719 45.640625 L 38.136719 46.03125 Z M 37.5625 46.03125 " fill-opacity="1" fill-rule="nonzero"/></g><g clip-path="url(#f8ed03bd40)"><g clip-path="url(#1f929efd86)"><g clip-path="url(#21acd16b3c)"><path fill="#222020" d="M 39.632812 37.894531 L 39.601562 38.285156 L 39.03125 38.242188 L 39.0625 37.851562 Z M 39.632812 37.894531 " fill-opacity="1" fill-rule="nonzero"/></g></g></g><g clip-path="url(#93678cbdee)"><g clip-path="url(#b413302105)"><g clip-path="url(#a4f66016f7)"><path fill="#222020" d="M 42.917969 41.714844 L 42.527344 41.726562 L 42.507812 41.15625 L 42.898438 41.140625 Z M 42.917969 41.714844 " fill-opacity="1" fill-rule="nonzero"/></g></g></g><g clip-path="url(#5eb9d87a3f)"><g clip-path="url(#9ef7d885d7)"><g clip-path="url(#01d658c46f)"><path fill="#222020" d="M 41.183594 44.941406 L 40.933594 44.640625 L 41.375 44.273438 L 41.625 44.574219 Z M 41.183594 44.941406 " fill-opacity="1" fill-rule="nonzero"/></g></g></g><g clip-path="url(#40218f6ea1)"><g clip-path="url(#53c2859235)"><g clip-path="url(#57599cf43c)"><path fill="#222020" d="M 40.320312 45.410156 L 40.15625 45.054688 L 40.675781 44.8125 L 40.839844 45.164062 Z M 40.320312 45.410156 " fill-opacity="1" fill-rule="nonzero"/></g></g></g><g clip-path="url(#937c41d835)"><g clip-path="url(#0eae766b9e)"><g clip-path="url(#d2dc6765d2)"><path fill="#222020" d="M 36.566406 45.988281 L 36.621094 45.601562 L 37.1875 45.683594 L 37.132812 46.070312 Z M 36.566406 45.988281 " fill-opacity="1" fill-rule="nonzero"/></g></g></g><g clip-path="url(#e301c76235)"><g clip-path="url(#4930a00d6a)"><g clip-path="url(#230ea0c9bb)"><path fill="#222020" d="M 35.503906 45.703125 L 35.617188 45.332031 L 36.167969 45.5 L 36.050781 45.875 Z M 35.503906 45.703125 " fill-opacity="1" fill-rule="nonzero"/></g></g></g><g clip-path="url(#9146e2144d)"><g clip-path="url(#3bf660f4c1)"><g clip-path="url(#715fc5967b)"><path fill="#222020" d="M 34.660156 45.296875 L 34.832031 44.949219 L 35.347656 45.203125 L 35.171875 45.550781 Z M 34.660156 45.296875 " fill-opacity="1" fill-rule="nonzero"/></g></g></g><g clip-path="url(#327c55ce0e)"><g clip-path="url(#9f482498b0)"><g clip-path="url(#c7d6ff5395)"><path fill="#222020" d="M 33.84375 44.796875 L 34.0625 44.472656 L 34.539062 44.792969 L 34.324219 45.117188 Z M 33.84375 44.796875 " fill-opacity="1" fill-rule="nonzero"/></g></g></g><g clip-path="url(#d0a7b06a2f)"><g clip-path="url(#1ab38f7d49)"><g clip-path="url(#ac88818001)"><path fill="#222020" d="M 33.152344 44.25 L 33.414062 43.957031 L 33.84375 44.339844 L 33.582031 44.628906 Z M 33.152344 44.25 " fill-opacity="1" fill-rule="nonzero"/></g></g></g><g clip-path="url(#9190843310)"><g clip-path="url(#de20f50ed4)"><g clip-path="url(#ca0bc7b111)"><path fill="#222020" d="M 32.484375 43.5625 L 32.78125 43.308594 L 33.152344 43.746094 L 32.855469 44 Z M 32.484375 43.5625 " fill-opacity="1" fill-rule="nonzero"/></g></g></g><g clip-path="url(#d920892c10)"><g clip-path="url(#eb925a3491)"><g clip-path="url(#50c54c7a88)"><path fill="#222020" d="M 31.941406 42.824219 L 32.273438 42.617188 L 32.578125 43.105469 L 32.246094 43.3125 Z M 31.941406 42.824219 " fill-opacity="1" fill-rule="nonzero"/></g></g></g><g clip-path="url(#41a366da0a)"><g clip-path="url(#86168643f6)"><g clip-path="url(#7ef4ae64a4)"><path fill="#222020" d="M 31.566406 41.957031 L 31.933594 41.820312 L 32.132812 42.359375 L 31.765625 42.496094 Z M 31.566406 41.957031 " fill-opacity="1" fill-rule="nonzero"/></g></g></g><g clip-path="url(#b8fb063127)"><g clip-path="url(#c717c8bc67)"><g clip-path="url(#58bc3b5d4f)"><path fill="#222020" d="M 31.4375 40.9375 L 31.824219 40.902344 L 31.878906 41.472656 L 31.492188 41.507812 Z M 31.4375 40.9375 " fill-opacity="1" fill-rule="nonzero"/></g></g></g><g clip-path="url(#a8bfc0cd24)"><g clip-path="url(#ce50eeb303)"><g clip-path="url(#7219c75bf9)"><path fill="#222020" d="M 31.507812 39.9375 L 31.894531 40 L 31.804688 40.566406 L 31.417969 40.503906 Z M 31.507812 39.9375 " fill-opacity="1" fill-rule="nonzero"/></g></g></g><g clip-path="url(#1a68cbcd8a)"><g clip-path="url(#1dfbb95bc4)"><g clip-path="url(#7aeb8921f4)"><path fill="#222020" d="M 31.746094 39.015625 L 32.117188 39.140625 L 31.933594 39.683594 L 31.5625 39.5625 Z M 31.746094 39.015625 " fill-opacity="1" fill-rule="nonzero"/></g></g></g><g clip-path="url(#48718da64e)"><g clip-path="url(#796e663bdc)"><g clip-path="url(#5bde4fb7e8)"><path fill="#222020" d="M 32.113281 38.074219 L 32.457031 38.261719 L 32.183594 38.765625 L 31.839844 38.578125 Z M 32.113281 38.074219 " fill-opacity="1" fill-rule="nonzero"/></g></g></g><g clip-path="url(#8b68ba84d9)"><g clip-path="url(#21e9b50ecd)"><g clip-path="url(#cc83611a29)"><path fill="#222020" d="M 32.734375 37.265625 L 33.035156 37.515625 L 32.667969 37.957031 L 32.367188 37.710938 Z M 32.734375 37.265625 " fill-opacity="1" fill-rule="nonzero"/></g></g></g><g clip-path="url(#b8e2d2369b)"><g clip-path="url(#6160feb881)"><g clip-path="url(#78613b6cf9)"><path fill="#222020" d="M 33.421875 36.527344 L 33.714844 36.785156 L 33.332031 37.214844 L 33.039062 36.957031 Z M 33.421875 36.527344 " fill-opacity="1" fill-rule="nonzero"/></g></g></g><g clip-path="url(#3c541315c3)"><g clip-path="url(#d0b95eb919)"><g clip-path="url(#1200ef1f9f)"><path fill="#222020" d="M 34.117188 35.84375 L 34.394531 36.121094 L 33.988281 36.527344 L 33.714844 36.25 Z M 34.117188 35.84375 " fill-opacity="1" fill-rule="nonzero"/></g></g></g><g clip-path="url(#055ebe244a)"><g clip-path="url(#e22751de1a)"><g clip-path="url(#3cb3dd3e37)"><path fill="#222020" d="M 34.894531 35.164062 L 35.171875 35.4375 L 34.765625 35.84375 L 34.488281 35.566406 Z M 34.894531 35.164062 " fill-opacity="1" fill-rule="nonzero"/></g></g></g><g clip-path="url(#f2737d9769)"><g clip-path="url(#1d816b8cdf)"><g clip-path="url(#c7b99bda2e)"><path fill="#222020" d="M 35.578125 34.46875 L 35.863281 34.734375 L 35.472656 35.15625 L 35.1875 34.890625 Z M 35.578125 34.46875 " fill-opacity="1" fill-rule="nonzero"/></g></g></g><g clip-path="url(#ef00c5d142)"><g clip-path="url(#ab840c5010)"><g clip-path="url(#0ad1fd0b99)"><path fill="#222020" d="M 36.253906 33.785156 L 36.539062 34.050781 L 36.148438 34.46875 L 35.863281 34.203125 Z M 36.253906 33.785156 " fill-opacity="1" fill-rule="nonzero"/></g></g></g><g clip-path="url(#2dc8fb4e94)"><g clip-path="url(#0d0904446c)"><g clip-path="url(#3b47e95592)"><path fill="#222020" d="M 36.929688 33.097656 L 37.214844 33.363281 L 36.828125 33.785156 L 36.539062 33.519531 Z M 36.929688 33.097656 " fill-opacity="1" fill-rule="nonzero"/></g></g></g><g clip-path="url(#edf2d026b1)"><g clip-path="url(#d06753897d)"><g clip-path="url(#d4c8bb1dd1)"><path fill="#222020" d="M 37.605469 32.410156 L 37.894531 32.675781 L 37.503906 33.097656 L 37.214844 32.832031 Z M 37.605469 32.410156 " fill-opacity="1" fill-rule="nonzero"/></g></g></g><g clip-path="url(#adad31966c)"><g clip-path="url(#d0d58854ba)"><g clip-path="url(#8d217e7ef3)"><path fill="#222020" d="M 38.28125 31.722656 L 38.570312 31.988281 L 38.179688 32.410156 L 37.894531 32.144531 Z M 38.28125 31.722656 " fill-opacity="1" fill-rule="nonzero"/></g></g></g><g clip-path="url(#9a20680017)"><g clip-path="url(#d1a9f3a586)"><g clip-path="url(#453d683373)"><path fill="#222020" d="M 38.960938 31.039062 L 39.246094 31.304688 L 38.855469 31.726562 L 38.570312 31.460938 Z M 38.960938 31.039062 " fill-opacity="1" fill-rule="nonzero"/></g></g></g><g clip-path="url(#cb0e026601)"><g clip-path="url(#6125cc1066)"><g clip-path="url(#ec24059463)"><path fill="#222020" d="M 39.636719 30.351562 L 39.921875 30.617188 L 39.53125 31.039062 L 39.246094 30.773438 Z M 39.636719 30.351562 " fill-opacity="1" fill-rule="nonzero"/></g></g></g><g clip-path="url(#e86cb4e3aa)"><g clip-path="url(#93b0512a5b)"><g clip-path="url(#4ca0be52b4)"><path fill="#222020" d="M 40.179688 29.660156 L 40.503906 29.875 L 40.1875 30.355469 L 39.863281 30.136719 Z M 40.179688 29.660156 " fill-opacity="1" fill-rule="nonzero"/></g></g></g><g clip-path="url(#d189ac160a)"><g clip-path="url(#0d8bc9cbca)"><g clip-path="url(#2398d7291d)"><path fill="#222020" d="M 40.46875 28.78125 L 40.835938 28.914062 L 40.644531 29.453125 L 40.277344 29.320312 Z M 40.46875 28.78125 " fill-opacity="1" fill-rule="nonzero"/></g></g></g><g clip-path="url(#e6b74ebe6a)"><g clip-path="url(#d3cf53b175)"><g clip-path="url(#8986059e15)"><path fill="#222020" d="M 40.695312 27.898438 L 41.074219 27.996094 L 40.933594 28.550781 L 40.554688 28.457031 Z M 40.695312 27.898438 " fill-opacity="1" fill-rule="nonzero"/></g></g></g><g clip-path="url(#7ee191438d)"><g clip-path="url(#ff297dd025)"><g clip-path="url(#142e0d5e61)"><path fill="#222020" d="M 40.722656 27.0625 L 41.113281 27.042969 L 41.144531 27.613281 L 40.753906 27.636719 Z M 40.722656 27.0625 " fill-opacity="1" fill-rule="nonzero"/></g></g></g><g clip-path="url(#d94574f727)"><g clip-path="url(#b7ab1fa4d7)"><g clip-path="url(#15ea22e657)"><path fill="#222020" d="M 40.625 26.128906 L 41.015625 26.105469 L 41.046875 26.679688 L 40.65625 26.703125 Z M 40.625 26.128906 " fill-opacity="1" fill-rule="nonzero"/></g></g></g><g clip-path="url(#9761c28adc)"><g clip-path="url(#77e4aca3e1)"><g clip-path="url(#cb2ea35a60)"><path fill="#222020" d="M 40.359375 25.214844 L 40.734375 25.105469 L 40.890625 25.660156 L 40.515625 25.765625 Z M 40.359375 25.214844 " fill-opacity="1" fill-rule="nonzero"/></g></g></g><g clip-path="url(#1652559f79)"><g clip-path="url(#1acac90fbb)"><g clip-path="url(#ecd4e648fa)"><path fill="#222020" d="M 39.996094 24.367188 L 40.347656 24.199219 L 40.597656 24.714844 L 40.246094 24.886719 Z M 39.996094 24.367188 " fill-opacity="1" fill-rule="nonzero"/></g></g></g><g clip-path="url(#767f67f983)"><g clip-path="url(#8b8b686717)"><g clip-path="url(#9367cb31ba)"><path fill="#222020" d="M 39.554688 23.476562 L 39.90625 23.308594 L 40.15625 23.824219 L 39.804688 23.996094 Z M 39.554688 23.476562 " fill-opacity="1" fill-rule="nonzero"/></g></g></g><g clip-path="url(#f8ee0fe718)"><g clip-path="url(#33482bae63)"><g clip-path="url(#a842e77c58)"><path fill="#222020" d="M 38.871094 23.066406 L 39.035156 22.710938 L 39.554688 22.949219 L 39.394531 23.304688 Z M 38.871094 23.066406 " fill-opacity="1" fill-rule="nonzero"/></g></g></g><g clip-path="url(#b385f327f4)"><g clip-path="url(#91040604ae)"><g clip-path="url(#d873d83e44)"><path fill="#222020" d="M 38.332031 23.769531 L 38.03125 23.523438 L 38.390625 23.078125 L 38.695312 23.324219 Z M 38.332031 23.769531 " fill-opacity="1" fill-rule="nonzero"/></g></g></g><g clip-path="url(#f7c2ac95f6)"><g clip-path="url(#0bc8bb8fe0)"><g clip-path="url(#5b7472874c)"><path fill="#222020" d="M 37.871094 24.53125 L 37.539062 24.328125 L 37.839844 23.839844 L 38.171875 24.042969 Z M 37.871094 24.53125 " fill-opacity="1" fill-rule="nonzero"/></g></g></g><g clip-path="url(#81518a9ba0)"><g clip-path="url(#6a12ae9a51)"><g clip-path="url(#edd699bd53)"><path fill="#222020" d="M 37.492188 25.367188 L 37.136719 25.203125 L 37.382812 24.683594 L 37.734375 24.847656 Z M 37.492188 25.367188 " fill-opacity="1" fill-rule="nonzero"/></g></g></g><g clip-path="url(#3caef058c5)"><g clip-path="url(#f0412544a9)"><g clip-path="url(#c63358a4f7)"><path fill="#222020" d="M 37.265625 26.371094 L 36.882812 26.289062 L 37.007812 25.726562 L 37.390625 25.8125 Z M 37.265625 26.371094 " fill-opacity="1" fill-rule="nonzero"/></g></g></g><g clip-path="url(#de82369b93)"><g clip-path="url(#096a70ef86)"><g clip-path="url(#a9c44ba269)"><path fill="#222020" d="M 37.101562 27.320312 L 36.71875 27.242188 L 36.832031 26.679688 L 37.214844 26.757812 Z M 37.101562 27.320312 " fill-opacity="1" fill-rule="nonzero"/></g></g></g><g clip-path="url(#3ff9ba8e03)"><g clip-path="url(#f763b61fde)"><g clip-path="url(#76fe3ebdba)"><path fill="#222020" d="M 37.054688 28.238281 L 36.664062 28.203125 L 36.714844 27.632812 L 37.105469 27.664062 Z M 37.054688 28.238281 " fill-opacity="1" fill-rule="nonzero"/></g></g></g><g clip-path="url(#e9865a3e1d)"><path fill="#222020" d="M 36.996094 29.140625 L 36.605469 29.140625 L 36.605469 28.566406 L 36.996094 28.566406 Z M 36.996094 29.140625 " fill-opacity="1" fill-rule="nonzero"/></g><g clip-path="url(#ee3c1e155c)"><path fill="#222020" d="M 37.019531 30.222656 L 36.628906 30.222656 L 36.628906 29.648438 L 37.019531 29.648438 Z M 37.019531 30.222656 " fill-opacity="1" fill-rule="nonzero"/></g><g clip-path="url(#a0705dc32d)"><g clip-path="url(#09bad94689)"><g clip-path="url(#e367fcc01b)"><path fill="#222020" d="M 37.082031 31.277344 L 36.695312 31.328125 L 36.617188 30.761719 L 37.003906 30.707031 Z M 37.082031 31.277344 " fill-opacity="1" fill-rule="nonzero"/></g></g></g><g clip-path="url(#d0a7a5465d)"><g clip-path="url(#269b2a4c03)"><g clip-path="url(#49e80b2fd7)"><path fill="#222020" d="M 37.25 32.316406 L 36.863281 32.367188 L 36.789062 31.800781 L 37.175781 31.746094 Z M 37.25 32.316406 " fill-opacity="1" fill-rule="nonzero"/></g></g></g><g clip-path="url(#8be6c81f29)"><g clip-path="url(#d69f0055bf)"><g clip-path="url(#d56c96f577)"><path fill="#222020" d="M 37.421875 33.355469 L 37.035156 33.40625 L 36.957031 32.835938 L 37.34375 32.785156 Z M 37.421875 33.355469 " fill-opacity="1" fill-rule="nonzero"/></g></g></g><g clip-path="url(#c2536f52d5)"><g clip-path="url(#5e5c6fe7c0)"><g clip-path="url(#7f8a3ebdd2)"><path fill="#222020" d="M 37.671875 34.3125 L 37.289062 34.394531 L 37.171875 33.832031 L 37.550781 33.75 Z M 37.671875 34.3125 " fill-opacity="1" fill-rule="nonzero"/></g></g></g><g clip-path="url(#8f77496bd1)"><g clip-path="url(#f844df38b9)"><g clip-path="url(#9dff4d133c)"><path fill="#222020" d="M 37.890625 35.265625 L 37.511719 35.347656 L 37.390625 34.789062 L 37.773438 34.707031 Z M 37.890625 35.265625 " fill-opacity="1" fill-rule="nonzero"/></g></g></g><g clip-path="url(#7d07581b9a)"><g clip-path="url(#6bbc25fe73)"><g clip-path="url(#4df6f2dfab)"><path fill="#222020" d="M 38.113281 36.222656 L 37.730469 36.304688 L 37.609375 35.742188 L 37.992188 35.660156 Z M 38.113281 36.222656 " fill-opacity="1" fill-rule="nonzero"/></g></g></g><g clip-path="url(#2bcd86643f)"><g clip-path="url(#ea5ca77ca5)"><g clip-path="url(#8240ff9414)"><path fill="#222020" d="M 38.332031 37.175781 L 37.949219 37.257812 L 37.828125 36.699219 L 38.210938 36.617188 Z M 38.332031 37.175781 " fill-opacity="1" fill-rule="nonzero"/></g></g></g><g clip-path="url(#98647d9943)"><g clip-path="url(#ef994e7754)"><g clip-path="url(#ff449cf128)"><path fill="#222020" d="M 38.550781 38.132812 L 38.167969 38.214844 L 38.046875 37.652344 L 38.429688 37.570312 Z M 38.550781 38.132812 " fill-opacity="1" fill-rule="nonzero"/></g></g></g><g clip-path="url(#88e63b47d3)"><g clip-path="url(#6f23d5a024)"><g clip-path="url(#7fa4752bb4)"><path fill="#222020" d="M 38.769531 39.089844 L 38.386719 39.167969 L 38.265625 38.609375 L 38.648438 38.527344 Z M 38.769531 39.089844 " fill-opacity="1" fill-rule="nonzero"/></g></g></g><g clip-path="url(#8a0a6374b4)"><g clip-path="url(#b35603ae15)"><g clip-path="url(#fbbaf70355)"><path fill="#222020" d="M 38.988281 40.042969 L 38.605469 40.125 L 38.488281 39.5625 L 38.867188 39.480469 Z M 38.988281 40.042969 " fill-opacity="1" fill-rule="nonzero"/></g></g></g><g clip-path="url(#84c0345dd0)"><g clip-path="url(#cc442e5dd1)"><g clip-path="url(#14c32e2381)"><path fill="#222020" d="M 39.207031 41 L 38.828125 41.082031 L 38.707031 40.519531 L 39.089844 40.4375 Z M 39.207031 41 " fill-opacity="1" fill-rule="nonzero"/></g></g></g><g clip-path="url(#d1a15d5a6c)"><g clip-path="url(#63ab1bf2bc)"><g clip-path="url(#171389f889)"><path fill="#222020" d="M 39.425781 41.953125 L 39.046875 42.035156 L 38.925781 41.472656 L 39.308594 41.390625 Z M 39.425781 41.953125 " fill-opacity="1" fill-rule="nonzero"/></g></g></g><g clip-path="url(#76777fcb29)"><g clip-path="url(#f6152f5a87)"><g clip-path="url(#3e4c8953f9)"><path fill="#222020" d="M 39.648438 42.910156 L 39.265625 42.992188 L 39.144531 42.429688 L 39.527344 42.347656 Z M 39.648438 42.910156 " fill-opacity="1" fill-rule="nonzero"/></g></g></g><g clip-path="url(#b52515311e)"><g clip-path="url(#e335401adf)"><g clip-path="url(#75a93648c9)"><path fill="#222020" d="M 39.867188 43.863281 L 39.484375 43.945312 L 39.363281 43.382812 L 39.746094 43.304688 Z M 39.867188 43.863281 " fill-opacity="1" fill-rule="nonzero"/></g></g></g><g clip-path="url(#eeaf7f8bff)"><g clip-path="url(#06a29cc0da)"><g clip-path="url(#8164696a7f)"><path fill="#222020" d="M 40.085938 44.820312 L 39.703125 44.902344 L 39.582031 44.339844 L 39.964844 44.257812 Z M 40.085938 44.820312 " fill-opacity="1" fill-rule="nonzero"/></g></g></g><g clip-path="url(#f434e05b39)"><g clip-path="url(#f4f34fd786)"><g clip-path="url(#aa1970bd3f)"><path fill="#222020" d="M 40.304688 45.773438 L 39.921875 45.855469 L 39.804688 45.296875 L 40.183594 45.214844 Z M 40.304688 45.773438 " fill-opacity="1" fill-rule="nonzero"/></g></g></g><g clip-path="url(#990f35ab91)"><g clip-path="url(#809b9f78db)"><g clip-path="url(#0198301e3c)"><path fill="#222020" d="M 40.742188 47.683594 L 40.363281 47.765625 L 40.242188 47.207031 L 40.625 47.125 Z M 40.742188 47.683594 " fill-opacity="1" fill-rule="nonzero"/></g></g></g><g clip-path="url(#bd354ee8c0)"><g clip-path="url(#f57465c427)"><g clip-path="url(#07253619f3)"><path fill="#222020" d="M 40.800781 48.652344 L 40.410156 48.671875 L 40.378906 48.101562 L 40.769531 48.078125 Z M 40.800781 48.652344 " fill-opacity="1" fill-rule="nonzero"/></g></g></g><g clip-path="url(#a1d21e0963)"><g clip-path="url(#41b133f87d)"><g clip-path="url(#928378b316)"><path fill="#222020" d="M 40.722656 49.59375 L 40.332031 49.554688 L 40.386719 48.984375 L 40.777344 49.023438 Z M 40.722656 49.59375 " fill-opacity="1" fill-rule="nonzero"/></g></g></g><g clip-path="url(#b0b87dccbd)"><g clip-path="url(#ab71971b26)"><g clip-path="url(#f89063fa27)"><path fill="#222020" d="M 40.46875 50.5625 L 40.097656 50.441406 L 40.273438 49.894531 L 40.644531 50.015625 Z M 40.46875 50.5625 " fill-opacity="1" fill-rule="nonzero"/></g></g></g><g clip-path="url(#0a26623b4a)"><g clip-path="url(#ffe3be45e8)"><g clip-path="url(#d950908b13)"><path fill="#222020" d="M 39.808594 51.566406 L 39.507812 51.316406 L 39.871094 50.875 L 40.171875 51.121094 Z M 39.808594 51.566406 " fill-opacity="1" fill-rule="nonzero"/></g></g></g><g clip-path="url(#bdbdcb61d4)"><g clip-path="url(#75d2662725)"><g clip-path="url(#61b8c3a744)"><path fill="#222020" d="M 38.90625 52.191406 L 38.714844 51.851562 L 39.210938 51.566406 L 39.40625 51.90625 Z M 38.90625 52.191406 " fill-opacity="1" fill-rule="nonzero"/></g></g></g><g clip-path="url(#1476be5d16)"><g clip-path="url(#95e317e2f6)"><g clip-path="url(#cd0b6ebd8c)"><path fill="#222020" d="M 37.832031 52.425781 L 37.777344 52.039062 L 38.34375 51.957031 L 38.398438 52.34375 Z M 37.832031 52.425781 " fill-opacity="1" fill-rule="nonzero"/></g></g></g><g clip-path="url(#c70b5628f2)"><g clip-path="url(#38636a5d6b)"><g clip-path="url(#c55f3e74d6)"><path fill="#222020" d="M 36.789062 52.441406 L 36.804688 52.054688 L 37.378906 52.074219 L 37.363281 52.460938 Z M 36.789062 52.441406 " fill-opacity="1" fill-rule="nonzero"/></g></g></g><g clip-path="url(#33b6e8bce2)"><g clip-path="url(#9b4bb99c40)"><g clip-path="url(#6a55cd8dbb)"><path fill="#222020" d="M 35.769531 52.160156 L 35.914062 51.800781 L 36.445312 52.015625 L 36.300781 52.375 Z M 35.769531 52.160156 " fill-opacity="1" fill-rule="nonzero"/></g></g></g><g clip-path="url(#dc90beea65)"><g clip-path="url(#39ea53851f)"><g clip-path="url(#bb14fbad4a)"><path fill="#222020" d="M 34.882812 51.703125 L 35.074219 51.363281 L 35.574219 51.640625 L 35.382812 51.984375 Z M 34.882812 51.703125 " fill-opacity="1" fill-rule="nonzero"/></g></g></g><g clip-path="url(#4a510d1ada)"><g clip-path="url(#5c6c2f9801)"><g clip-path="url(#3229046484)"><path fill="#222020" d="M 34.183594 50.9375 L 34.5 50.707031 L 34.835938 51.171875 L 34.523438 51.402344 Z M 34.183594 50.9375 " fill-opacity="1" fill-rule="nonzero"/></g></g></g><g clip-path="url(#1ff4ebe9a7)"><g clip-path="url(#5a8450778b)"><g clip-path="url(#8d184480fb)"><path fill="#222020" d="M 33.878906 50 L 34.261719 49.902344 L 34.398438 50.460938 L 34.019531 50.554688 Z M 33.878906 50 " fill-opacity="1" fill-rule="nonzero"/></g></g></g><g clip-path="url(#f91105707f)"><g clip-path="url(#5b2397ab33)"><g clip-path="url(#626fc43e2a)"><path fill="#222020" d="M 33.898438 48.996094 L 34.289062 49.035156 L 34.230469 49.605469 L 33.839844 49.566406 Z M 33.898438 48.996094 " fill-opacity="1" fill-rule="nonzero"/></g></g></g></svg>