<svg xmlns="http://www.w3.org/2000/svg" xmlns:xlink="http://www.w3.org/1999/xlink" width="100" zoomAndPan="magnify" viewBox="0 0 75 74.999997" height="100" preserveAspectRatio="xMidYMid meet" version="1.0"><defs><clipPath id="2023ce03dd"><path d="M 15.519531 13.097656 L 24.96875 13.097656 L 24.96875 25.128906 L 15.519531 25.128906 Z M 15.519531 13.097656 " clip-rule="nonzero"/></clipPath><clipPath id="e28c5c4e27"><path d="M 18.519531 13.097656 L 21.96875 13.097656 C 22.761719 13.097656 23.527344 13.414062 24.089844 13.976562 C 24.652344 14.539062 24.96875 15.300781 24.96875 16.097656 L 24.96875 22.097656 C 24.96875 22.894531 24.652344 23.65625 24.089844 24.21875 C 23.527344 24.78125 22.761719 25.097656 21.96875 25.097656 L 18.519531 25.097656 C 17.722656 25.097656 16.960938 24.78125 16.398438 24.21875 C 15.832031 23.65625 15.519531 22.894531 15.519531 22.097656 L 15.519531 16.097656 C 15.519531 15.300781 15.832031 14.539062 16.398438 13.976562 C 16.960938 13.414062 17.722656 13.097656 18.519531 13.097656 Z M 18.519531 13.097656 " clip-rule="nonzero"/></clipPath><clipPath id="8442373de5"><path d="M 28.308594 11.503906 L 47 11.503906 L 47 63 L 28.308594 63 Z M 28.308594 11.503906 " clip-rule="nonzero"/></clipPath></defs><rect x="-7.5" width="90" fill="#ffffff" y="-7.5" height="89.999996" fill-opacity="1"/><rect x="-7.5" width="90" fill="#ffffff" y="-7.5" height="89.999996" fill-opacity="1"/><g clip-path="url(#2023ce03dd)"><g clip-path="url(#e28c5c4e27)"><path fill="#ffffff" d="M 15.519531 13.097656 L 24.96875 13.097656 L 24.96875 25.09375 L 15.519531 25.09375 Z M 15.519531 13.097656 " fill-opacity="1" fill-rule="nonzero"/></g></g><g clip-path="url(#8442373de5)"><path fill="#000000" d="M 38.066406 50.851562 C 35.378906 50.699219 32.636719 49.054688 30.996094 47.167969 C 29.09375 44.980469 28.3125 42.007812 28.511719 39.566406 C 29.101562 32.390625 37.101562 28.148438 40.0625 25.015625 C 42.042969 22.917969 42.457031 21.894531 42.902344 20.816406 C 43.757812 18.726562 43.894531 16.28125 42.195312 16.097656 C 40.574219 15.921875 39.242188 18.410156 38.644531 20.113281 C 38.109375 21.640625 37.753906 23.175781 38.074219 25.484375 C 38.21875 26.519531 42.207031 55.433594 42.277344 55.878906 C 42.949219 60.359375 40.320312 62.214844 37.640625 62.542969 C 31.855469 63.253906 29.996094 57.515625 32.589844 55.335938 C 34.589844 53.660156 37.492188 55.101562 37.335938 57.859375 C 37.199219 60.300781 34.742188 60.375 34.113281 60.316406 C 35.078125 62.003906 42.339844 62.882812 41.222656 55.269531 C 41.066406 54.199219 37.382812 27.027344 37.292969 26.417969 C 36.613281 21.867188 36.511719 18.265625 38.941406 14.058594 C 39.839844 12.507812 41.257812 11.503906 41.953125 11.636719 C 42.109375 11.664062 42.261719 11.71875 42.382812 11.84375 C 44.246094 13.714844 44.816406 17.875 44.613281 20.261719 C 44.40625 22.707031 44.289062 25.238281 41.796875 28.1875 C 40.832031 29.332031 37.890625 31.847656 36.203125 33.292969 C 33.832031 35.324219 32.113281 37.097656 31.179688 39.238281 C 30.136719 41.644531 29.957031 44.671875 32.320312 47.359375 C 33.679688 48.875 35.933594 49.953125 37.828125 49.976562 C 43.105469 50.039062 44.644531 47.503906 44.691406 44.632812 C 44.773438 39.902344 38.921875 38.113281 36.515625 41.363281 C 35.121094 43.25 35.734375 45.234375 36.671875 46.179688 C 36.992188 46.503906 37.351562 46.75 37.691406 46.886719 C 37.8125 46.9375 38.105469 47.070312 38.019531 47.261719 C 37.953125 47.421875 37.820312 47.429688 37.699219 47.417969 C 36.179688 47.238281 34.5 45.824219 34.089844 43.390625 C 33.484375 39.84375 36.695312 35.632812 41.277344 36.324219 C 44.273438 36.773438 47.058594 39.289062 46.816406 43.980469 C 46.605469 47.996094 43.191406 51.140625 38.066406 50.851562 Z M 38.066406 50.851562 " fill-opacity="1" fill-rule="nonzero"/></g></svg>