<svg xmlns="http://www.w3.org/2000/svg" xmlns:xlink="http://www.w3.org/1999/xlink" width="100" zoomAndPan="magnify" viewBox="0 0 75 74.999997" height="100" preserveAspectRatio="xMidYMid meet" version="1.0"><defs><clipPath id="6214b478d5"><path d="M 15.519531 13.097656 L 24.96875 13.097656 L 24.96875 25.128906 L 15.519531 25.128906 Z M 15.519531 13.097656 " clip-rule="nonzero"/></clipPath><clipPath id="125fbc4014"><path d="M 18.519531 13.097656 L 21.96875 13.097656 C 22.761719 13.097656 23.527344 13.414062 24.089844 13.976562 C 24.652344 14.539062 24.96875 15.300781 24.96875 16.097656 L 24.96875 22.097656 C 24.96875 22.894531 24.652344 23.65625 24.089844 24.21875 C 23.527344 24.78125 22.761719 25.097656 21.96875 25.097656 L 18.519531 25.097656 C 17.722656 25.097656 16.960938 24.78125 16.398438 24.21875 C 15.832031 23.65625 15.519531 22.894531 15.519531 22.097656 L 15.519531 16.097656 C 15.519531 15.300781 15.832031 14.539062 16.398438 13.976562 C 16.960938 13.414062 17.722656 13.097656 18.519531 13.097656 Z M 18.519531 13.097656 " clip-rule="nonzero"/></clipPath></defs><rect x="-7.5" width="90" fill="#ffffff" y="-7.5" height="89.999996" fill-opacity="1"/><rect x="-7.5" width="90" fill="#ffffff" y="-7.5" height="89.999996" fill-opacity="1"/><g clip-path="url(#6214b478d5)"><g clip-path="url(#125fbc4014)"><path fill="#ffffff" d="M 15.519531 13.097656 L 24.96875 13.097656 L 24.96875 25.09375 L 15.519531 25.09375 Z M 15.519531 13.097656 " fill-opacity="1" fill-rule="nonzero"/></g></g><path stroke-linecap="butt" transform="matrix(0.749973, 0.00637195, -0.00637195, 0.749973, 15.16566, 44.455512)" fill="none" stroke-linejoin="miter" d="M 0.00213586 0.502025 L 58.853223 0.502031 " stroke="#000000" stroke-width="1" stroke-opacity="1" stroke-miterlimit="4"/><path stroke-linecap="butt" transform="matrix(0.749973, 0.00637195, -0.00637195, 0.749973, 15.524253, 25.098732)" fill="none" stroke-linejoin="miter" d="M -0.00205981 0.498601 L 58.854236 0.498562 " stroke="#000000" stroke-width="1" stroke-opacity="1" stroke-miterlimit="4"/><path stroke-linecap="butt" transform="matrix(0.749973, 0.00637195, -0.00637195, 0.749973, 15.434605, 29.937939)" fill="none" stroke-linejoin="miter" d="M -0.00231306 0.499453 L 58.853983 0.499414 " stroke="#000000" stroke-width="1" stroke-opacity="1" stroke-miterlimit="4"/><path stroke-linecap="butt" transform="matrix(0.749973, 0.00637195, -0.00637195, 0.749973, 15.344956, 34.77713)" fill="none" stroke-linejoin="miter" d="M -0.00256613 0.500325 L 58.853729 0.500286 " stroke="#000000" stroke-width="1" stroke-opacity="1" stroke-miterlimit="4"/><path stroke-linecap="butt" transform="matrix(0.749973, 0.00637195, -0.00637195, 0.749973, 15.255308, 39.616329)" fill="none" stroke-linejoin="miter" d="M 0.00238885 0.501143 L 58.853476 0.501148 " stroke="#000000" stroke-width="1" stroke-opacity="1" stroke-miterlimit="4"/></svg>