<svg xmlns="http://www.w3.org/2000/svg" xmlns:xlink="http://www.w3.org/1999/xlink" width="100" zoomAndPan="magnify" viewBox="0 0 75 74.999997" height="100" preserveAspectRatio="xMidYMid meet" version="1.0"><defs><clipPath id="cf26ef80f1"><path d="M 15.519531 13.097656 L 24.96875 13.097656 L 24.96875 25.128906 L 15.519531 25.128906 Z M 15.519531 13.097656 " clip-rule="nonzero"/></clipPath><clipPath id="077635dd48"><path d="M 18.519531 13.097656 L 21.96875 13.097656 C 22.761719 13.097656 23.527344 13.414062 24.089844 13.976562 C 24.652344 14.539062 24.96875 15.300781 24.96875 16.097656 L 24.96875 22.097656 C 24.96875 22.894531 24.652344 23.65625 24.089844 24.21875 C 23.527344 24.78125 22.761719 25.097656 21.96875 25.097656 L 18.519531 25.097656 C 17.722656 25.097656 16.960938 24.78125 16.398438 24.21875 C 15.832031 23.65625 15.519531 22.894531 15.519531 22.097656 L 15.519531 16.097656 C 15.519531 15.300781 15.832031 14.539062 16.398438 13.976562 C 16.960938 13.414062 17.722656 13.097656 18.519531 13.097656 Z M 18.519531 13.097656 " clip-rule="nonzero"/></clipPath><clipPath id="191c7fa42e"><path d="M 31.757812 19.097656 L 43.757812 19.097656 L 43.757812 52.847656 L 31.757812 52.847656 Z M 31.757812 19.097656 " clip-rule="nonzero"/></clipPath></defs><rect x="-7.5" width="90" fill="#ffffff" y="-7.5" height="89.999996" fill-opacity="1"/><rect x="-7.5" width="90" fill="#ffffff" y="-7.5" height="89.999996" fill-opacity="1"/><g clip-path="url(#cf26ef80f1)"><g clip-path="url(#077635dd48)"><path fill="#ffffff" d="M 15.519531 13.097656 L 24.96875 13.097656 L 24.96875 25.09375 L 15.519531 25.09375 Z M 15.519531 13.097656 " fill-opacity="1" fill-rule="nonzero"/></g></g><path stroke-linecap="butt" transform="matrix(0.749973, 0.00637195, -0.00637195, 0.749973, 15.16566, 44.455519)" fill="none" stroke-linejoin="miter" d="M 0.00213578 0.502016 L 58.853223 0.502021 " stroke="#000000" stroke-width="1" stroke-opacity="1" stroke-miterlimit="4"/><g clip-path="url(#191c7fa42e)"><path fill="#000000" d="M 38 44.757812 C 36.285156 44.65625 34.527344 43.585938 33.480469 42.355469 C 32.261719 40.929688 31.761719 38.988281 31.890625 37.398438 C 32.265625 32.71875 37.382812 29.953125 39.277344 27.90625 C 40.546875 26.539062 40.8125 25.871094 41.09375 25.167969 C 41.644531 23.808594 41.730469 22.210938 40.644531 22.09375 C 39.605469 21.976562 38.753906 23.601562 38.371094 24.710938 C 38.03125 25.707031 37.800781 26.710938 38.007812 28.214844 C 38.101562 28.886719 40.652344 47.746094 40.695312 48.039062 C 41.125 50.957031 39.445312 52.167969 37.730469 52.382812 C 34.027344 52.847656 32.839844 49.105469 34.5 47.683594 C 35.777344 46.589844 37.636719 47.527344 37.535156 49.328125 C 37.445312 50.921875 35.875 50.96875 35.472656 50.929688 C 36.089844 52.03125 40.734375 52.605469 40.023438 47.640625 C 39.921875 46.941406 37.5625 29.222656 37.507812 28.824219 C 37.074219 25.855469 37.007812 23.503906 38.5625 20.761719 C 39.136719 19.75 40.042969 19.097656 40.488281 19.183594 C 40.589844 19.203125 40.6875 19.238281 40.761719 19.316406 C 41.957031 20.539062 42.320312 23.25 42.191406 24.808594 C 42.058594 26.402344 41.984375 28.054688 40.386719 29.976562 C 39.773438 30.722656 37.890625 32.363281 36.808594 33.308594 C 35.292969 34.632812 34.191406 35.789062 33.597656 37.183594 C 32.929688 38.753906 32.816406 40.726562 34.328125 42.480469 C 35.195312 43.46875 36.636719 44.171875 37.851562 44.1875 C 41.226562 44.230469 42.210938 42.574219 42.242188 40.699219 C 42.292969 37.617188 38.550781 36.449219 37.011719 38.570312 C 36.117188 39.800781 36.507812 41.09375 37.109375 41.710938 C 37.316406 41.921875 37.542969 42.082031 37.761719 42.171875 C 37.839844 42.207031 38.027344 42.292969 37.972656 42.417969 C 37.929688 42.523438 37.84375 42.527344 37.765625 42.519531 C 36.796875 42.402344 35.722656 41.480469 35.457031 39.890625 C 35.070312 37.578125 37.125 34.832031 40.054688 35.28125 C 41.972656 35.578125 43.753906 37.21875 43.597656 40.277344 C 43.464844 42.894531 41.28125 44.945312 38 44.757812 Z M 38 44.757812 " fill-opacity="1" fill-rule="nonzero"/></g><path stroke-linecap="butt" transform="matrix(0.749973, 0.00637195, -0.00637195, 0.749973, 15.524253, 25.098738)" fill="none" stroke-linejoin="miter" d="M -0.00205987 0.498593 L 58.854236 0.498554 " stroke="#000000" stroke-width="1" stroke-opacity="1" stroke-miterlimit="4"/><path stroke-linecap="butt" transform="matrix(0.749973, 0.00637195, -0.00637195, 0.749973, 15.434605, 29.937935)" fill="none" stroke-linejoin="miter" d="M -0.00231301 0.499458 L 58.853983 0.499419 " stroke="#000000" stroke-width="1" stroke-opacity="1" stroke-miterlimit="4"/><path stroke-linecap="butt" transform="matrix(0.749973, 0.00637195, -0.00637195, 0.749973, 15.344956, 34.77713)" fill="none" stroke-linejoin="miter" d="M -0.00256613 0.500325 L 58.853729 0.500286 " stroke="#000000" stroke-width="1" stroke-opacity="1" stroke-miterlimit="4"/><path stroke-linecap="butt" transform="matrix(0.749973, 0.00637195, -0.00637195, 0.749973, 15.255308, 39.616325)" fill="none" stroke-linejoin="miter" d="M 0.00238889 0.501148 L 58.853476 0.501153 " stroke="#000000" stroke-width="1" stroke-opacity="1" stroke-miterlimit="4"/></svg>